<?xml version="1.0" encoding="UTF-8"?>
<svg id="Layer_1" xmlns="http://www.w3.org/2000/svg" version="1.1" viewBox="0 0 684.5 269.55">
  <!-- Generator: Adobe Illustrator 29.5.1, SVG Export Plug-In . SVG Version: 2.1.0 Build 141)  -->
  <defs>
    <style>
      .st0 {
        fill: #a6a4a4;
      }

      .st1 {
        fill: #969595;
      }

      .st2 {
        fill: #a0a0a0;
      }

      .st3 {
        fill: #c7c7c8;
      }

      .st4 {
        fill: #020202;
      }

      .st5 {
        fill: #fff;
      }

      .st6 {
        fill: #525151;
      }

      .st7 {
        fill: #bababa;
      }

      .st8 {
        fill: #626364;
      }

      .st9 {
        fill: #777677;
      }

      .st10 {
        fill: #b3b2b3;
      }

      .st11 {
        fill: #b5b5b6;
      }

      .st12 {
        fill: #8a8a8b;
      }

      .st13 {
        fill: #2d2d2e;
      }

      .st14 {
        fill: #c2c2c2;
      }

      .st15 {
        fill: #9d9d9c;
      }

      .st16 {
        fill: #6d6f6e;
      }

      .st17 {
        fill: #adadad;
      }

      .st18 {
        fill: #434343;
      }

      .st19 {
        fill: #545655;
      }
    </style>
  </defs>
  <g>
    <path d="M89.42,140.05c2.01,1.57,4.48,2.38,6.76,3.51,5.31,2.63,9.6,6.96,14.8,9.81,6.76,3.71,14.63,4.72,22.29,5.65,5.06.62,10.24,1.23,15.19.05,4.54-1.08,8.61-3.6,13.04-5.04,0-1.33,1.46-2.6.83-3.77-.23-.43-.69-.68-1.14-.89-8.88-4.04-19.29,1.97-28.91.33-6.43-1.09-11.8-5.48-18-7.47-2.37-.76-4.86-1.17-7.13-2.21-4.94-2.26-8.16-7.18-12.81-9.99-1.82-1.1-4.07-1.86-6.07-1.13-4.71,1.73-1.52,9.06,1.15,11.14h0Z"/>
    <path class="st4" d="M167.66,139.44c-1.77,3.57-4.57,6.79-8.28,8.24-1.24.48-2.57.76-3.89.68-3.86-.24-6.88-3.35-9.17-6.48-2.03-2.78-3.81-5.74-5.32-8.83-.55-1.13-1.08-2.33-1.07-3.58.02-1.87,1.22-3.49,2.37-4.97.43-.56.89-1.14,1.52-1.46s1.48-.33,1.97.18c.66.7.36,1.97,1.04,2.65.45.45,1.16.47,1.8.5,2.46.12,4.86.84,7.32.85,2.6.02,5.14-.75,7.72-1.03,2.39-.26,6.94-.13,7.26,2.71.33,2.96-1.99,7.94-3.28,10.54h.01Z"/>
    <path class="st14" d="M152.89,63.42c2.72,4.6,5.45,9.21,8.23,14.08.93,2.44,1.8,4.6,2.59,6.84-1.41-.68-2.87-1.28-4.05-2.22-1.18-.95-1.96-.61-2.42.47-.41.97-.8,1.1-1.71.76-.98-.37-1.56-.08-1.56,1.15,0,.86-.3,1.71-.46,2.56-.41-.53-.34-1.11-.59-1.48-.66-.97-1.39-1.95-2.28-2.68-.16-.13-1.25.88-2.06,1.37-.35.05-.55.09-.69.08.05-.06-.06.05-.04-.09-.14-.93-.43-1.33-1.28-.57-2.38-.56-3.55-.32-4.39,2.72-.55,2-.5,4.16-.75,6.38-.31.9-.96,1.63.06,2.42.3.23.24.93.21,1.5-.26,1.18-.51,2.28-.48,3.37.02,1.14.71,2.4.4,3.39-.86,2.83-.6,5.59-.09,8.19-.81.6-1.95,1-2.2,1.71-.61,1.79.78,4.07,2.55,4.99.56.29.96.91,1.43,1.37-.09.05-.18.1-.27.15-.65-.25-1.29-.49-1.94-.74.02.83-.05,1.68.09,2.5.06.35.62.59.84.95.33.55.8,1.18.75,1.74-.04.51-.7.96-1.17,1.55-.92-1.61-1.66-2.89-2.45-4.27-.37.32-.68.59-1.13.97-.64-1.81-1.86-2.51-3.68-2.4-2.32-2.27-4.64-4.35-6.79-6.6-1.49-1.56-2.63-3.45-4.09-5.04-3.68-4.01-7.45-7.93-11.2-12.02-.05-.29-.09-.45.02-.64,1.11-.82,2.4-1.43,2.97-2.44,1.13-1.98.96-4.16.37-6.41-.29-1.11.21-2.49.56-3.68.23-.78.98-1.4,1.19-2.18.14-.5-.22-1.63-.45-1.65-1.61-.19-1.85-1.43-2.22-2.57-1.84-5.67-3.68-11.35-5.48-17.03-.58-1.82-1.05-3.66-1.57-5.64.13-.5.18-.92.4-1.21,2.37-3.25,4.77-6.48,7.16-9.71.42-.57.85-1.13,1.26-1.7.74-1.04,1.48-2.09,2.22-3.14.26.03.51.07.77.1,3.18,9.54,6.37,19.08,9.55,28.63h.69c.34-.4.79-.75,1.01-1.22,1.6-3.4,3.19-6.8,4.7-10.24.82-1.86,1.45-3.8,2.2-5.69.7-1.79-.13-2.73-1.68-3.49-.66-.32-1.1-1.09-1.51-1.53,1.16-.49,1.98-.83,2.9-1.12.53.53.94,1.01,1.38,1.61.15.3.29.49.5.69.08.02.23.08.24.05s-.06-.04-.02.06c.16.17.28.23.46.39.17.28.28.46.42.77,1.68,1.96,3.36,3.77,5,5.61.92,1.04,1.78,2.13,2.69,3.33,1.02,1.93,1.98,3.74,3.05,5.49.24.39.87.54,1.32.8,0,0,.07,0,.03.14.14.26.32.39.5.52h-.01Z"/>
    <path class="st18" d="M91.01,251.25c-6.07-4.37-12.18-8.68-18.19-13.13-10.73-7.95-21.52-15.83-32.05-24.03-8.47-6.59-15.94-14.32-22.94-22.46-3.61-4.19-6.78-8.76-10.17-13.42-.15-.49-.28-.72-.4-.95,0,0,.02,0,.04-.15.66-4.35,1.25-8.55,1.96-12.73.7-4.11,1.51-8.2,2.34-12.17,2.28,7.54,5.75,14.34,10.32,20.55,2.16,2.93,4.72,5.57,7.14,8.45.27.44.48.77.77,1.21,7.45,5.42,14.8,10.77,22.24,16,2.14,1.51,4.52,2.69,6.85,4.12.52.57.98,1.04,1.46,1.64.24.6.43,1.09.67,1.54,7.87,14.34,17.09,27.79,26.93,40.84,1.12,1.48,2.03,3.13,3.04,4.69h0Z"/>
    <path class="st8" d="M91.12,251.32c-1.11-1.64-2.03-3.28-3.15-4.77-9.84-13.05-19.06-26.5-26.93-40.84-.25-.45-.43-.93-.54-1.56.44-.27.77-.38,1.17-.4.53.51.92,1.07,1.45,1.32,3.24,1.56,6.49,3.09,9.77,4.58,4.37,1.99,8.76,3.93,13.22,5.91.08,0,.24.05.25.21.64,3.03,1.28,5.91,1.91,8.93.13.69.26,1.23.39,1.92,0,.43,0,.72.01,1.14.13.43.25.74.38,1.17,0,.3,0,.47.01.8,1.13,6.3,2.27,12.43,3.4,18.56,2.45-3.61,4.43-7.18,6.36-10.79,1.05-1.97,2.02-3.99,3.12-6.07,1.35-2.4,2.55-4.74,3.9-6.99.38-.63,1.21-.98,1.83-1.28-.18,5.92-.38,11.65-.53,17.39-.2,7.09-.36,14.17-.54,21.41-.11.43-.22.71-.32,1-2.5-1.87-5.01-3.72-7.49-5.62-2.54-1.95-5.04-3.96-7.67-6.02h0Z"/>
    <path class="st3" d="M137.2,43.91c-.82.34-1.63.69-2.79,1.18.41.43.85,1.2,1.51,1.53,1.55.76,2.39,1.7,1.68,3.49-.74,1.89-1.38,3.83-2.2,5.69-1.51,3.44-3.1,6.84-4.7,10.24-.22.46-.66.81-1.01,1.22h-.69c-3.18-9.54-6.37-19.08-9.55-28.63-.26-.03-.51-.07-.77-.1-.74,1.05-1.47,2.1-2.22,3.14-.41.57-.84,1.14-1.26,1.7-2.39,3.24-4.79,6.47-7.16,9.71-.21.29-.26.71-.51,1.14-1.11-.89-2.12-1.83-3.1-2.81-2.29-2.31-4.63-4.58-6.84-6.97-3.82-4.13-7.57-8.34-11.33-12.63.03-.28.05-.44.07-.59,4.23-1.66,8.68-1.73,13.12-1.67,2.96.04,5.92.21,8.88.44,1.08.08,2.14.52,3.46.82.48-.07.7-.17.93-.27.16-.06.32-.13.68-.07,2.22.73,4.23,1.34,6.35,2.03,2.02.94,3.93,1.81,5.86,2.62.74.31,1.54.48,2.31.84,1.63,1.34,3.26,2.56,4.94,3.86.34.27.63.46,1,.74.22.2.37.3.56.52.96,1.02,1.86,1.93,2.77,2.84h.01Z"/>
    <path class="st1" d="M89.8,135.48c4.64,3.74,9.28,7.48,13.84,11.38-.67.83-1.3,1.48-1.84,2.19-1.21,1.56-.95,4.88.3,6.18-.94-.32-1.74-.6-2.55-.88,0,0,0,.03-.07-.07-.29-.22-.5-.34-.82-.54-6.17-2.97-12.54-4.71-19.66-5.28.52,1.07.85,1.74,1.17,2.56,1.8,7.34,4.73,14.07,8.08,21.04,2.1-1.06,3.96-1.96,5.78-2.94.35-.19.66-.63.79-1.02.46-1.39,1.44-1.69,2.71-1.42,1.55.33,2.32-.29,2.49-1.75,2.52,5.28,4.9,10.48,7.38,15.63,1.67,3.47,3.49,6.87,5.1,10.29-.88-.38-1.68-.67-2.36-1.13-4.07-2.73-8.22-5.35-12.14-8.28-4.79-3.57-9.98-6.62-13.94-11.26-3.3-3.87-6.94-7.46-10.33-11.26-1.36-1.52-2.46-3.26-3.56-4.94.46-.4.74-.98,1.15-1.09,1.34-.34,1.07-1.24.67-1.99-.1-.19-1.12.12-1.96.23-.56-.51-1.51-1.13-2.1-2-.76-1.12-1.68-1.48-2.94-1.42-.02-.18-.03-.26.08-.35-.18-.59-.48-1.16-.94-2.03.39-.3,1.05-.82,1.71-1.33,0-1.34.27-2.62.88-3.72,1.42-2.58,3-5.07,4.64-7.57.69.66,1.25,1.29,1.83,2.05,1.81,2.6,3.49,5.15,5.44,7.48.88,1.05,2.29,1.65,3.47,2.48.02.03.11.04.11.04,0,0-.12-.07-.12-.23-.17-1.9,1.22-2.71,2.21-3.73.72-.74,1.56-1.36,2.27-2.1,1.33-1.39-.91-1.83-.81-2.9.01-.12.07-.24.18-.65.49.14.98.38,1.47.41.79.05,1.59-.05,2.39-.08"/>
    <path class="st10" d="M86.21,31.22c.12.17.1.33-.05.64-1.69,1.48-3.24,2.82-4.82,4.13-1.81,1.51-3.64,3-5.51,4.36-.66-1.9-1.21-3.69-1.88-5.43-3.1-8.02-6.56-15.89-11.87-22.73-3.29-4.25-5.77-4.01-8.61.59-3.22,5.22-5.06,10.99-6.61,17.03-.19,1.01-.34,1.86-.48,2.73.02,0,.04-.02-.08.08-.62,2.64-1.12,5.18-1.73,7.83-.23.74-.35,1.36-.61,1.97-1.36.84-3.37-1.09-4.27,1.28h1.36l.18.61c-.61.24-1.22.67-1.83.67-1.12,0-2.25-.24-3.38-.51.07-.38.16-.63.38-.87.55,0,.95-.04,1.36-.06-.1-.39-.1-.85-.32-1.16-.23-.33-.67-.51-1.02-.76.07-.33.15-.66.44-1.1.36-.37.51-.62.66-1.03.17-.96.37-1.76.48-2.57.15-1.13.23-2.28.34-3.42.02-.25.05-.5.24-.76.17-.27.17-.53.16-.79,1-3.28,2-6.55,3.18-10,.83-2.11,1.48-4.05,2.13-5.99,0,0,0,.04.13,0,.3-.67.48-1.3.65-1.93,0,0,0,.04.13,0,.5-1.08.88-2.14,1.27-3.19,0,0,0,.04.13,0,.22-.38.32-.72.43-1.06,0,0,0,.03.1-.02.16-.29.22-.52.29-.75,0,0,0,.03.08-.03.11-.2.14-.34.17-.48,0,0,0,.06.1.02.17-.28.24-.52.31-.75,0,0,0,.04.1.03.22-.36.33-.7.45-1.04.67-1.02,1.23-2.12,2.02-3.03,3.62-4.15,5.42-4.39,10.94-2.88,2.39.65,4.13,2.09,5.51,3.89,4.21,5.52,8.27,11.15,12.35,16.76,2.32,3.2,4.57,6.45,6.99,9.7"/>
    <path class="st1" d="M95.8,134.63c-.54-.44-1.08-.89-1.65-1.5-.19-.24-.36-.31-.53-.38,0,0,.04-.04.07-.14-.05-.85-.14-1.6-.23-2.48.81-.3,1.4-1.97,3.03-.86,1.5,1.03.7,2.12.18,3.19,1.38.07,2.59.13,3.87.19-.09-.26-.17-.5-.25-.74h.16c2.4.36,4.64.74,6.89,1.05.34.05.73-.19,1.19-.2,2.94,1.79,5.6,3.99,8.66,5.09,5.78,2.07,11.72,3.86,17.73,5.1,4.44.91,9.22,1.78,13.32-1.59.21-.18.62-.12.94-.17,1.71,1.39,3.41,2.79,5.32,4.29.33.12.47.12.6.12,0,0,.02,0,.04.14.24.23.45.32.67.42,0,0-.05.05-.06.17-.22.71-.48,1.28-.64,1.88-.21.79-.35,1.59-.52,2.39-1.57.62-3.15,1.24-4.96,1.91-.33.16-.41.27-.5.37,0,0,0-.04-.09-.03-.3.12-.49.24-.69.36,0,0-.15.04-.36.02-.54.12-.87.25-1.19.38,0,0-.15.03-.4,0-.89.03-1.53.11-2.17.13-3.26.1-6.52.33-9.78.25-3.52-.09-7.04-.47-10.56-.72,0,0,.04.16-.05.02-1.47-.47-2.86-.81-4.24-1.14,0,0,0,.11-.04-.03-.62-.26-1.22-.39-1.81-.51-4.24-2.61-8.48-5.23-12.73-8.03-.18-.26-.35-.35-.52-.43,0,0,.05-.02,0-.09-.16-.16-.28-.24-.39-.33,0,0,.07,0,.01-.05-.18-.15-.3-.24-.43-.32,0,0,.08,0,.03-.06-.17-.15-.28-.24-.4-.32,0,0,.07.03.01-.04-.19-.15-.32-.23-.45-.31,0,0,.07-.04.03-.1-.15-.14-.27-.22-.39-.3,0,0,.06,0,.01-.07-.16-.15-.28-.23-.39-.32,0,0,.06.02,0-.06-.29-.17-.51-.26-.74-.36-.99-.93-1.98-1.87-3.03-3.05-.31-.44-.57-.63-.83-.82,0,0,.03,0,.01-.11-.18-.27-.34-.44-.5-.6,0,0,.06-.04.03-.11-.15-.14-.28-.22-.41-.29,0,0,.06-.03.03-.11-.16-.14-.29-.22-.41-.29,0,0,.05-.06.02-.14-.19-.16-.35-.23-.51-.3M94.91,130.66c.34.21.67.42,1.01.63.07-.38.14-.76.21-1.14-.39.09-.79.17-1.22.52h0Z"/>
    <path class="st16" d="M1.5,122.24c1.34-5.51,2.64-11.03,4.06-16.52.48-1.85,1.24-3.62,1.98-5.52.11-.09.13-.07.13.08,0,.56-.01.98-.1,1.48-.16.42-.23.74-.38,1.13-.12.26-.17.46-.21.66.08.02.17.03.25.05.03-.24.06-.49.17-.82.16-.41.23-.74.42-1.14.29-.68.46-1.28.63-1.89l.1-.08c.16-.42.23-.75.29-1.08l.09-.06c.16-.28.23-.5.3-.71l.1-.08c.16-.42.23-.75.29-1.08l.09-.06c.16-.29.23-.5.3-.72l.1-.07c3.25-6.07,6.19-12.19,9.59-18.03,3.97-6.83,8.35-13.42,12.66-20.3.47.67.64.93.83,1.34-.43,3.29-.87,6.42-1.36,9.69-.63,6.77-1.2,13.4-1.85,20.14-.26.94-.44,1.76-.71,2.51-.45-.03-.98-.15-1.16.04-2.85,3.12-5.74,6.22-8.45,9.46-1.93,2.31-3.61,4.82-5.48,7.32-.16.29-.23.5-.31.7,0,0,.01-.01-.11.02-.31.4-.48.77-.66,1.14,0,0,.01,0-.04.04-.02.18.02.32.06.5,0,.04,0,.13-.12.17-.64.6-1.29,1.09-1.63,1.73-1.9,3.56-3.79,7.13-5.55,10.76-.79,1.62-1.28,3.38-1.91,5.08.11-.55.23-1.1.34-1.66-.08-.04-.17-.08-.25-.12-.44.66-.88,1.33-1.57,2.04-.54-.52-1.03-1.09-1.06-1.67-.06-1.48.08-2.97.14-4.45v-.02h-.01Z"/>
    <path class="st10" d="M127.93,35.81c-.77-.23-1.57-.4-2.31-.71-1.93-.81-3.84-1.69-5.81-2.75,2.19-3.96,4.26-7.8,6.71-11.39,2.38-3.48,5.15-6.69,7.71-10.05.31-.4,1.46-1,0-1.5,1.39-1.03,2.74-2.14,4.18-3.09,5.94-3.91,11.07-1.76,12.6,4.98-.07.71-.15,1.16-.07,1.57.53,2.75,1.4,5.48,1.59,8.25.44,6.47.56,12.95.84,19.43.03.61.24,1.22.37,1.83-.25,3.13-.5,6.26-.85,9.61-.15.33-.21.43-.27.53,0,0,0,.17-.12.37-.3,1.95-.47,3.71-.64,5.46,0,0,0,.16-.11.34-.12.58-.11.98-.1,1.38.22.81.43,1.62.68,2.55-.42-.13-1.05-.28-1.29-.67-1.07-1.75-2.03-3.57-3.04-5.66.48-5.88.97-11.46,1.48-17.2.05-.7.08-1.23.25-1.83.27-.4.54-.75.53-1.08-.17-3.65-.33-7.29-.6-10.93-.07-.89-.5-1.76-.83-2.77-.54-2.2-.85-4.32-1.53-6.31-1.3-3.82-3.49-4.36-6.19-1.37-2.32,2.57-4.5,5.33-6.3,8.28-2.51,4.11-4.6,8.47-6.87,12.72h-.02.01Z"/>
    <path class="st17" d="M149.13,141.07c-.27.18-.68.12-.89.3-4.1,3.37-8.88,2.5-13.32,1.59-6.01-1.24-11.95-3.02-17.73-5.1-3.06-1.1-5.72-3.3-8.73-5.2-1.81-1.7-3.56-3.1-5.06-4.73-.86-.94-1.32-2.24-1.81-3.36,7.09,1.95,14.16,3.13,21.35,3.44,4.81.21,9.63.3,14.45.38.81,0,1.63-.25,2.6-.38,1.25-.11,1.66.35,1.88,1.48.3,1.54.09,3.41,1.93,4.29,0,0-.05,0-.07.13.53.95,1.08,1.78,1.63,2.6.13,0,.22.07.29.41.2.38.38.54.56.7,0,0-.09,0-.08.08.1.18.18.3.27.41.89.95,1.78,1.89,2.71,2.96h.02,0Z"/>
    <path class="st19" d="M3.84,128.22c.68-1.81,1.18-3.57,1.97-5.19,1.77-3.63,3.65-7.2,5.55-10.76.34-.65.99-1.13,1.7-1.61.19.33.22.59.17.83-1.98,9.19-3.47,18.46-3.18,27.89.11,3.71.74,7.4,1.18,11.24.13.57.22,1.02.3,1.47-.76,4.1-1.58,8.19-2.28,12.3-.71,4.18-1.3,8.38-1.97,12.74-1.7-4.26-3.76-8.58-4.98-13.13-2.24-8.37-1.36-16.91-.27-25.37.44-3.44,1.16-6.85,1.81-10.39v-.02h0Z"/>
    <path class="st17" d="M161.04,175.85c-.53-1.35-1.05-2.69-1.59-4.08-.3,3.45-.38,6.86-.93,10.2-.66,4.02-1.72,7.97-2.61,11.95-.19.87-.32,1.77-.66,2.58-.18.43-.78.68-1.37.9-.28-.21-.38-.3-.46-.54.07-.89.35-1.72.12-2.37-.52-1.47-1.3-2.85-1.97-4.27-1.5-3.2-2.95-6.42-4.51-9.59-.77-1.56-1.73-3.03-2.54-4.66,1.64-3.2,3.27-6.26,4.8-9.37.86-1.76,1.56-3.6,2.42-5.49,1.01-1.13,1.92-2.17,2.82-3.23l.14.09c.3-.23.47-.54.63-.86l.14.04c.17-.12.21-.27.25-.43l.13.03c.17-.13.22-.27.26-.42,0,0,0,.02.12,0,.24-.14.36-.27.56-.47.35-.9.61-1.73.86-2.56.85-.24,1.75-.37,2.55-.73,1.66-.74,2.37-.17,2.27,1.74-.25.35-.45.5-.45.65.07,3.92.34,7.86.19,11.77-.12,3.05-.77,6.08-1.19,9.12h.02,0Z"/>
    <path class="st3" d="M143.79,133.64c-1.8-.74-1.59-2.61-1.9-4.14-.22-1.12-.63-1.58-1.8-1.58.07-.68.52-1.59.32-1.76-1.71-1.5-3.53-2.87-5.59-4.48-.05-.17-.23-.77-.41-1.38,1.75-.22,2.98.48,3.61,2.29.44-.38.75-.65,1.13-.97.79,1.37,1.52,2.65,2.45,4.27.47-.59,1.13-1.04,1.17-1.55.05-.56-.42-1.19-.75-1.74-.22-.36-.78-.6-.84-.95-.14-.81-.07-1.66-.09-2.5.65.25,1.29.49,1.94.74.09-.05.18-.1.27-.15-.47-.47-.87-1.08-1.43-1.37-1.77-.92-3.16-3.2-2.55-4.99.24-.71,1.39-1.11,2.2-1.71-.51-2.61-.77-5.36.09-8.19.3-1-.38-2.25-.4-3.39-.02-1.09.23-2.19.59-3.3,2.73,2.81,5.22,5.62,7.72,8.53,0,.09,0,.26.07.37.4.3.74.49,1.09.67l.02.12c.14.29.26.48.38.66l.05.08c.13.18.23.26.4.43,2.97,3.3,5.87,6.5,8.79,9.68.55.6,1.14,1.42,1.97.28.34.78.55,1.67,1.06,2.31,1.02,1.24,2.21,2.34,3.18,3.71-4-1.5-8.03-1.91-12.19-1.49-1.28.13-2.56.16-3.92.17-.18-.11-.28-.15-.39-.19.12.12.23.24.27.47-1.33.49-2.58.86-3.93,1.16-.57-.42-1.04-.76-1.52-1.2-.14-.21-.27-.32-.39-.44-.04.04-.08.09-.12.13.18.13.35.27.52.53-.25.83-.49,1.52-.73,2.21-2.22,2.76-1.56,5.64-.34,8.69v-.03h0Z"/>
    <path class="st12" d="M157.49,153.27c-.09.86-.35,1.7-.82,2.63-.34.22-.45.33-.57.45,0,0,0-.02-.09,0-.15.15-.22.26-.28.38,0,0,0-.02-.11,0-.15.14-.21.26-.27.38,0,0-.02-.02-.13,0-.29.27-.47.52-.64.77,0,0-.02-.02-.15,0-2.16,1.16-4.19,2.31-6.29,3.45-.06,0-.17.02-.26.03s-.26.06-.4.09c-.88.25-1.62.49-2.37.67-5.85,1.42-11.72,1.08-17.65.43-8.85-.98-17.41-2.82-25.23-7.3-1.39-1.33-1.64-4.65-.44-6.21.55-.71,1.17-1.36,1.9-2.07.14-.03.12-.02.15.03.02.05.16.14.16.14l.16-.09c2.53,1.44,5.05,2.88,7.69,4.52.38.28.65.36.91.44,0,0-.07,0,0,.07.31.15.55.22.8.29,0,0-.07.03,0,.11.41.16.76.25,1.11.33,0,0-.03,0,.03.09.3.15.53.21.77.27,0,0-.06,0,0,.1,1.08.41,2.09.72,3.1,1.04,0,0-.05.04.02.11.22.15.37.23.52.31.88.12,1.77.21,2.64.38,2.04.38,4.07.8,6.33,1.38,2.76.33,5.29.48,7.82.63.18-.02.36-.04.8.07,1.72.17,3.2.39,4.63.19,1.7-.24,3.36-.84,5.03-1.29,2.77-.88,5.54-1.8,8.33-2.62.82-.24,1.73-.18,2.77-.23l.03.04h0Z"/>
    <path class="st7" d="M141.82,224.2c-.17.35-.34.7-.75,1.13-1.32.65-2.25,1.3-1.63,2.75-.02.07-.04.14-.28.22-.51.6-.8,1.19-1.08,1.78,0,0,0,.04-.18.03-.99.38-1.8,1.09-2.64,1.11-3.57.08-7.15,0-10.72-.14-.47-.02-.92-.72-1.29-1.21,1.84-7.27,3.6-14.42,5.44-21.7.92-3.93,1.75-7.74,2.61-11.65.14-.29.26-.47.47-.53.02,2.39,1.19,4.25,2.09,6.21.59,1.28,1.09,2.6,1.55,3.93,1.34,3.92,2.65,7.85,3.92,11.79.49,1.52.8,3.11,1.31,4.62.2.59.73,1.07,1.12,1.62l.05.05h.01Z"/>
    <path class="st6" d="M33.18,58.64c-.18-.25-.35-.51-.82-1.18-4.32,6.88-8.69,13.48-12.66,20.3-3.4,5.84-6.34,11.96-9.59,17.88-.11-.38-.11-.68-.11-.98,1.53-3.39,3.06-6.79,4.76-10.54-3.36,1.62-5.41,4.28-8.03,6.42-.23-.09-.27-.15-.32-.2,2.27-7.57,5.88-14.53,9.83-21.32,5.1-8.76,10.85-17.05,17.97-24.33.49-.51,1.03-.97,1.67-1.39.17.18.25.25.37.28-.08.25-.17.5-.24.88,0,.14.02.16-.13.21-1,4.69-1.84,9.33-2.69,13.97M15.04,83.97c.09,0,.18,0,.26-.03.02,0,.01-.1.02-.16-.08,0-.16.01-.27.19h-.01Z"/>
    <path class="st2" d="M101.45,124.55c.64,1.14,1.1,2.44,1.96,3.38,1.5,1.63,3.25,3.03,4.96,4.64-.3.21-.68.45-1.03.4-2.25-.31-4.49-.69-6.9-1.13-.21-.16-.27-.23-.32-.3-.02.04-.06.1-.04.13.06.09.14.17.22.25.08.24.16.47.25.74-1.28-.06-2.49-.12-3.87-.19.51-1.07,1.32-2.16-.18-3.19-1.63-1.11-2.22.56-3.03.86.1.88.18,1.62.22,2.5-.86-.34-1.63-1.01-2.52-1.22-.75-.18-1.83-.09-2.38.35-.35.28-.07,1.46.1,2.2.11.46.54.85.87,1.4-.75.16-1.55.25-2.34.21-.5-.03-.98-.26-1.47-.41-.12.41-.17.53-.18.65-.1,1.08,2.14,1.52.81,2.9-.71.74-1.56,1.36-2.27,2.1-.99,1.02-2.38,1.83-2.21,3.73-1.17-.65-2.58-1.25-3.46-2.3-1.95-2.33-3.63-4.88-5.35-7.58.94-1.37,1.77-2.55,2.69-3.64,2.65-3.13,5.43-6.03,9.68-7.06,1.43-.35,2.7-1.41,4.08-2.16.7.96,2.2.92,3.72-.33,2.76,1.04,5.37,2.06,7.99,3.08h0Z"/>
    <path class="st7" d="M162.29,117.41c-.85,1.3-1.44.49-1.99-.12-2.92-3.18-5.82-6.38-8.75-9.74-.18-.26-.34-.35-.49-.44v-.11c-.14-.29-.26-.47-.38-.66l-.03-.13c-.4-.3-.76-.48-1.12-.65v-.41c.15-.71.17-1.31.48-1.64,2.18-2.38,2.61-4.82,1.34-7.75-.14-.33.08-.82.12-1.24.05-.49.22-1.02.09-1.46-.49-1.66-1.07-3.29-1.65-5.07-.43-.81-.83-1.47-1.21-2.14.02-.01,0,.03.03-.13.02-.59.02-1.03,0-1.46.66-.48,1.76-1.49,1.91-1.36.89.74,1.62,1.71,2.28,2.68.25.37.18.95.59,1.48.16-.85.46-1.71.46-2.56,0-1.22.58-1.52,1.56-1.15.91.34,1.3.21,1.71-.76.46-1.08,1.24-1.42,2.42-.47,1.17.95,2.63,1.54,4.09,2.36.03.91,1.83,2.16-.42,2.53-1.03-.37-2.06-.74-3.24-1.28-.52-.19-.88-.22-1.24-.24,1.09,3.79,2.37,7.53,3.23,11.37.72,3.25.95,6.61,1.4,10.21-.06.92-.12,1.55-.2,2.44-.8-.71-1.3-1.16-1.79-1.6,0,0,.03,0,.03-.11-.07-.46-.13-.8-.2-1.14-.19.1-.38.21-.57.31.53,3.43,1.05,6.85,1.56,10.44M161.44,84.79c.07-.09.13-.19.2-.28-.1.06-.2.12-.2.28"/>
    <path class="st17" d="M123.17,229.97c.46.38.9,1.08,1.38,1.1,3.57.14,7.15.22,10.72.14.83-.02,1.65-.73,2.62-1.1-5.78,8.96-12.78,17-20.58,24.32-3.05,2.86-6.32,5.48-9.51,8.17-.38.32-.94.43-1.46.5.06-.43.16-.71.4-1.18.85-1.08,1.65-1.91,2.26-2.87,5.4-8.45,9.3-17.64,13.34-26.77.22-.51-.19-1.3-.22-2.05.41-.15.74-.21,1.06-.28v.02h0Z"/>
    <path class="st1" d="M134.13,9.43c1.57.46.41,1.07.11,1.47-2.56,3.36-5.34,6.57-7.71,10.05-2.45,3.59-4.52,7.44-6.81,11.31-2.07-.47-4.08-1.08-6.17-1.8,1.8-2.17,3.69-4.21,5.54-6.27.97-1.08,1.79-2.32,2.83-3.32,4-3.83,8.06-7.6,12.21-11.43h0Z"/>
    <path class="st13" d="M146.47,123.79c1.25-.37,2.5-.75,3.86-1.25.11-.13.15-.2.15-.2,1.28-.08,2.57-.11,3.85-.24,4.16-.42,8.18-.01,12.17,1.62.13-.08.14-.03.12.14.24.21.49.24.74.27,0,0-.03.01-.1.13.11.18.3.23.48.29,0,0-.04.02.05,0,.09.05.1.12.03.32-.57.16-1.06.22-1.54.18-5.29-.44-10.28.26-14.45,3.92-2.44-.38-4.93-.57-7.29-1.22-1.81-.5.1-1.64.06-2.69.7-.56,1.28-.92,1.87-1.29v.02Z"/>
    <path class="st2" d="M154.71,150.55c.05-.75.19-1.55.4-2.34.16-.6.42-1.17.66-1.91,1.03.74,1.88.45,3.05-.11,2.21-1.06,4.38-2.07,6.07-4.23.31-.21.42-.31.52-.41,0,0-.04.08.02,0,.15-.21.23-.34.31-.47,0,0,0,.08.07.04.15-.17.23-.3.31-.43,0,0-.12-.04,0,.03.13.73.25,1.41.12,2.05-.33,1.59-.78,3.15-1.18,4.72,0,0,0-.05-.1,0-.16.28-.23.52-.3.76,0,0,0-.04-.09,0-.15.19-.22.33-.29.47-1.25,1.21-2.29,2.85-4.42,2.3-1.15-.3-2.25-.76-3.28-1.61-.58.36-1.16.73-1.87,1.14h0Z"/>
    <path class="st8" d="M152.01,128.98c4-3.66,8.98-4.35,14.27-3.91.48.04.97-.02,1.54-.15.08-.11,0-.12,0-.12,1.1,1.14,2.19,2.28,3.29,3.41l-.42.56c-4.43-2-8.87-.46-13.31-.22-1.74.1-3.47.27-5.39.42h.02Z"/>
    <path class="st3" d="M153.39,197c.1.09.2.19.36.37-1.72,6.55-4.18,12.73-7.43,18.59-1.2,2.16-2.31,4.37-3.7,6.6-.32.04-.4.04-.44-.1.81-1.68,1.63-3.2,2.37-4.76,1.96-4.12,3.98-8.22,5.8-12.4,1.18-2.7,2.04-5.53,3.05-8.3h-.01Z"/>
    <path class="st3" d="M153.77,42.2c-.15-.43-.37-1.04-.39-1.65-.28-6.48-.39-12.96-.84-19.43-.19-2.77-1.06-5.5-1.59-8.25-.08-.42,0-.87.08-1.43.83,3.52,2.01,7.14,2.27,10.82.46,6.57.36,13.17.47,19.94h0Z"/>
    <path class="st3" d="M161.05,175.98c.4-3.17,1.05-6.2,1.17-9.25.16-3.92-.12-7.85-.19-11.77,0-.15.2-.3.42-.51.07,7.65.03,15.36-.02,23.07-.28.04-.56.08-.84.12-.17-.51-.35-1.02-.54-1.66h0Z"/>
    <path class="st17" d="M123.96,153.43c3.45.12,6.97.5,10.49.58,3.25.08,6.52-.15,9.78-.25.64-.02,1.28-.1,2.09-.14-1.36.37-2.89.96-4.44,1.04-5.98.28-11.97.31-17.93-1.23h.01Z"/>
    <path class="st12" d="M1.45,122.38c-.02,1.34-.16,2.83-.09,4.31.03.58.52,1.15.95,1.74-.21.66-.58,1.3-1.08,1.91-.17-.14-.2-.24-.24-.35.04.18.08.36.12.54l-.57,1.13c-.18-.04-.36-.08-.54-.12.47-3,.94-6.01,1.45-9.15h0Z"/>
    <path class="st3" d="M163.42,87.11c2.16-.48.36-1.73.4-2.7-.91-2.3-1.78-4.47-2.64-6.8,1.62,3.34,3.22,6.84,4.82,10.34-.13.1-.26.21-.39.31-.7-.35-1.41-.69-2.2-1.15h0Z"/>
    <path class="st14" d="M165.16,147.39c.3-1.48.74-3.04,1.08-4.63.13-.63,0-1.32-.11-2.11.35-.8.81-1.47,1.27-2.14.18.07.36.14.54.21-.89,2.85-1.79,5.71-2.78,8.66h0Z"/>
    <path class="st3" d="M161.48,108.05c.48.3.98.74,1.78,1.46.08-.9.14-1.52.21-2.3.35,1.35.68,2.85,1.02,4.36-.22.11-.44.21-.66.32-.78-1.23-1.56-2.46-2.35-3.83h0Z"/>
    <path class="st17" d="M146.23,156.14c-1.51.41-3.16,1.02-4.87,1.26-1.43.2-2.91-.03-4.5-.16,2.98-.42,6.09-.74,9.36-1.09h0Z"/>
    <path class="st3" d="M38.28,33.62c-.07,1-.14,2.14-.29,3.28-.11.81-.31,1.61-.6,2.59-.28.17-.43.17-.59.17.48-1.97.96-3.93,1.48-6.04Z"/>
    <path class="st17" d="M135.76,157.12c-2.36-.13-4.89-.29-7.48-.56,2.4.1,4.85.32,7.48.56Z"/>
    <path class="st3" d="M43.94,16.05c-.55,1.84-1.2,3.78-1.98,5.75.54-1.86,1.21-3.76,1.98-5.75Z"/>
    <path class="st14" d="M146.36,123.71c-.48.45-1.07.81-1.78,1.23-.12.05-.29.01-.37.01.16-.69.4-1.38.64-2.21.47.2.94.55,1.51.96h0Z"/>
    <path class="st17" d="M36.38,43.59c-.26-.03-.34-.1-.38-.31.11-.54.22-1,.37-1.56.39.14.82.32,1.06.65.22.31.22.77.32,1.16-.41.02-.81.05-1.36.06h0Z"/>
    <path class="st3" d="M151.99,58.27c.05-1.67.22-3.42.49-5.29-.06,1.66-.21,3.44-.49,5.29Z"/>
    <path class="st16" d="M9.87,94.72c.12.24.12.54.12,1,0,.1-.03.17-.08.22-.16.28-.23.5-.31.71l-.09.08c-.16.42-.23.75-.3,1.07l-.09.07c-.16.28-.23.5-.3.71l-.09.08c-.16.42-.23.75-.3,1.08l-.1.04c-.29.14-.48.24-.68.35,0,0-.02-.02-.03-.03.7-1.78,1.4-3.54,2.23-5.38,0,0,.02,0,.02,0Z"/>
    <path class="st17" d="M119.67,152.29c1.3.22,2.69.56,4.09,1.05-1.33-.21-2.67-.57-4.09-1.05Z"/>
    <path class="st17" d="M139.52,227.99c-.7-1.37.23-2.01,1.45-2.6-.36.83-.87,1.67-1.45,2.6Z"/>
    <path class="st3" d="M46.14,10.94c-.3.95-.69,2-1.2,3.09.29-.97.7-1.98,1.2-3.09Z"/>
    <path class="st3" d="M145.33,136.39c-.5-.7-1.05-1.52-1.58-2.5.53.69,1.03,1.53,1.58,2.5Z"/>
    <path class="st2" d="M118.51,154.21c-.93-.2-1.94-.52-3.02-.96.93.2,1.93.52,3.02.96Z"/>
    <path class="st17" d="M117.87,151.69c.47.07,1.06.19,1.63.46-.52-.04-1.01-.22-1.63-.46Z"/>
    <path class="st17" d="M138.17,230.01c.19-.52.48-1.11.9-1.65-.18.56-.49,1.07-.9,1.65Z"/>
    <path class="st3" d="M44.73,14.12c-.08.54-.26,1.17-.58,1.84.07-.55.27-1.15.58-1.84Z"/>
    <path class="st3" d="M160.86,106.99c.06-.13.25-.23.44-.33.07.34.13.68.2,1.16-.17-.18-.34-.49-.63-.82h0Z"/>
    <path class="st3" d="M151.74,60.02c-.1-.34-.11-.74,0-1.25.11.32.11.76,0,1.25Z"/>
    <path class="st3" d="M48.33,6.85c-.05.24-.17.57-.41.93.03-.27.19-.54.41-.93Z"/>
    <path class="st14" d="M158.95,85.51c.25,0,.61.01,1,.15-.28.04-.58-.04-1-.15Z"/>
    <path class="st17" d="M36.77,39.8c.19-.14.34-.14.62-.16-.03.24-.18.5-.43.79-.14-.14-.18-.32-.18-.64h0Z"/>
    <path class="st1" d="M112.62,30.46c-.11.15-.34.26-.65.31.12-.15.33-.26.65-.31Z"/>
    <path class="st11" d="M97.59,136.69c.21.08.46.27.73.59-.22-.07-.45-.28-.73-.59Z"/>
    <path class="st10" d="M152.84,63.34c-.13-.05-.31-.18-.44-.41.16.05.28.19.44.41Z"/>
    <path class="st2" d="M114.58,152.73c-.25,0-.59-.08-1.02-.28.25,0,.59.09,1.02.28Z"/>
    <path class="st3" d="M46.69,9.86c-.02.25-.12.59-.36.97,0-.26.14-.57.36-.97Z"/>
    <path class="st17" d="M146.93,153.66c.19-.16.51-.3.98-.42-.19.16-.51.3-.98.42Z"/>
    <path class="st3" d="M38.69,32.04c.04.15.04.41-.02.61-.05-.21-.03-.36.02-.61Z"/>
    <path class="st7" d="M142.24,223.47c-.08.2-.16.41-.33.67-.09.06-.13.03-.13-.1.12-.31.24-.49.39-.64.03.02.07.07.07.07Z"/>
    <path class="st3" d="M47.08,9.08c.02.15-.05.38-.22.67-.03-.16.05-.38.22-.67Z"/>
    <path class="st19" d="M7.25,177.39c.13.09.25.32.39.69-.12-.09-.25-.32-.39-.69Z"/>
    <path class="st3" d="M167.31,124c-.2.1-.45.07-.71-.13.21-.11.43-.06.71.13Z"/>
    <path class="st7" d="M142.14,222.61c.08,0,.16,0,.36.02.06.24,0,.48-.15.78-.1.06-.15.02-.18-.14-.03-.32-.03-.49-.02-.66h-.01Z"/>
    <path class="st3" d="M47.74,7.83c.02.16-.05.4-.24.67-.03-.18.06-.39.24-.67Z"/>
    <path class="st2" d="M115.41,153.09c-.16.03-.4-.03-.7-.19.16-.04.39.03.7.19Z"/>
    <path class="st2" d="M155.75,146.07c-.16,0-.37-.09-.6-.32.17,0,.36.11.6.32Z"/>
    <path class="st14" d="M164.74,148.16c-.02-.16.05-.4.24-.68.03.17-.06.39-.24.68Z"/>
    <path class="st11" d="M101.46,140.56c.16-.02.38.07.66.28-.16.02-.38-.08-.66-.28Z"/>
    <path class="st17" d="M148.47,153.24c.07-.14.27-.26.58-.37-.07.13-.27.26-.58.37Z"/>
    <path class="st11" d="M97.05,135.99c.16.04.32.2.5.49-.16-.04-.33-.2-.5-.49Z"/>
    <path class="st2" d="M113.5,152.27c-.17.04-.41-.03-.72-.21.17-.04.41.04.72.21Z"/>
    <path class="st3" d="M146.17,137.52c-.13-.05-.3-.22-.5-.51.14.05.29.22.5.51Z"/>
    <path class="st2" d="M112.68,151.9c-.18.04-.45-.03-.84-.18.17-.03.46.02.84.18Z"/>
    <path class="st11" d="M104.54,143.27c.12,0,.29.08.41.23-.15,0-.26-.07-.41-.23Z"/>
    <path class="st2" d="M93.67,132.83c.12,0,.29.06.41.2-.18.05-.28,0-.41-.2Z"/>
    <path class="st6" d="M6.59,90.6c-.07.02-.2-.05-.26-.19.11-.01.16.04.26.19Z"/>
    <path class="st3" d="M146.44,138c-.11,0-.19-.11-.29-.34.1,0,.2.11.29.34Z"/>
    <path class="st14" d="M165.28,141.56c.02.09-.09.19-.29.35,0-.08.08-.21.29-.35Z"/>
    <path class="st11" d="M104.13,142.88c.08-.02.2.06.37.25-.07.02-.2-.06-.37-.25Z"/>
    <path class="st11" d="M103.72,142.51c.09-.03.21.06.39.24-.08.02-.22-.05-.39-.24Z"/>
    <path class="st2" d="M155.02,145.53c-.06.08-.2.08-.41,0,.06-.08.2-.08.41,0Z"/>
    <path class="st11" d="M102.52,141.39c.12-.05.24.03.41.2-.1.04-.25-.02-.41-.2Z"/>
    <path class="st3" d="M152.72,52.48c-.03-.06.03-.16.15-.33.02.05-.02.17-.15.33Z"/>
    <path class="st14" d="M165.98,140.69c.05.12-.04.25-.22.42-.04-.11.03-.26.22-.42Z"/>
    <path class="st11" d="M102.12,141c.14-.05.25.03.41.21-.11.04-.27-.02-.41-.21Z"/>
    <path class="st1" d="M104.08,147.03c.08.03-.07.12-.07.12,0,0-.14-.09-.16-.16-.02-.06.15,0,.23.03h0Z"/>
    <path class="st14" d="M164.38,148.68c-.04-.09.03-.23.2-.43.04.09-.02.23-.2.43Z"/>
    <path class="st14" d="M165.61,141.11c.04.1-.04.23-.23.42-.03-.09.04-.24.23-.42Z"/>
    <path class="st11" d="M102.9,141.78c.11-.04.24.04.41.23-.1.04-.24-.03-.41-.23Z"/>
    <path class="st11" d="M95.86,134.75c.09-.05.25.02.47.21-.09.05-.25-.02-.47-.21Z"/>
    <path class="st2" d="M119.11,154.6c-.13.07-.28,0-.52-.18.11-.06.3,0,.52.18Z"/>
    <path class="st3" d="M167.82,124.75c0,.05.07.06.08.02,0-.1,0-.16-.11-.23-.06.05-.02.1.03.21Z"/>
    <path class="st11" d="M103.32,142.13c.11-.03.22.05.39.24-.09.03-.23-.05-.39-.24Z"/>
    <path class="st3" d="M167.72,124.45c-.16.04-.34-.02-.45-.2.19-.05.3.02.45.2Z"/>
    <path class="st17" d="M149.23,152.86c0-.07.07-.17.24-.34,0,.06-.07.18-.24.34Z"/>
    <path class="st3" d="M47.34,8.56c.05.07.02.21-.11.42-.05-.07,0-.21.11-.42Z"/>
    <path class="st11" d="M96.69,135.6c.11-.06.24,0,.41.19-.1.05-.25,0-.41-.19Z"/>
    <path class="st11" d="M96.31,135.2c.1-.05.23.02.41.2-.1.04-.24-.02-.41-.2Z"/>
    <path class="st11" d="M101.6,124.58c-2.76-1.04-5.38-2.06-8.21-3.22-3.4-1.85-6.63-3.52-9.78-5.31-1.61-.92-3.09-2.07-4.56-3.24,1.09-.57,2.08-1.15,3.14-1.45,2.31-.64,4.89-.71,6.92-1.83,1.59-.88,2.65-1.85,4.16-.19.99-2.25.94-2.27-1.14-2.84-2.2-.6-4.46-1.16-6.53-2.08-2.43-1.08-4.61-2.75-7.06-3.77-3.04-1.25-3.28-1.31-2.98-4.53,2.67-2.21,5.27-4.31,7.88-6.41-.08-.14-.15-.29-.23-.43-.5,0-1.01,0-1.57-.11-.49-.85-1.42-1.73-1.26-2.3.51-1.83.22-3.1-1.69-3.8.32-.72.66-1.28.81-1.88.22-.87-.09-1.87-1.09-1.24-1.36.85-2.47.25-3.62-.09.66-.48,1.26-.84,1.84-1.22,1.7-1.1,3.4-2.21,5.19-3.34.11-.18.2-.38.14-.49-1.11-1.9-2.23-3.8-3.21-5.69,3.46.08,3.54,3.24,4.78,5.28,2.05-1.8,3.86-3.43,5.71-5,1.46-1.24,2.96-2.42,4.47-3.6.34-.27.79-.61,1.18-.58,2.22.13,4.43.34,6.64.6.36.04.68.48,1.02.74-.35.19-.71.36-1.06.56-.52.3-1.03.62-1.54.94.11.25.21.49.32.74,1.34,0,2.7-.13,4.02.04,1.34.17,2.15,1.7,1.95,2.66-1.43-.14-2.8-.28-4.18-.41-.06.2-.11.41-.17.61.51.7,1.02,1.39,1.37,2.08-5.27-1.74-10.33-1.37-15.46.4-.29.13-.48.25-.8.37-.44,0-.73,0-1.17.01-.93.45-1.71.89-2.49,1.33.47.64.9,1.31,1.42,1.9.17.19.59.2.9.25,1.27.18,1.76.92,1.13,2.01-.83,1.44.52,2.33,1.08,2.31,2.19-.07,1.95,1.32,1.86,2.66-.46.09-.79.18-1.11.26.16.29.32.57.47.99,0,.22.02.3,0,.49-.15.26-.26.42-.49.6-.4.14-.68.28-1.04.41-.17.13-.25.27-.4.5-.12.32-.27.68-.19.75,1.47,1.27,2.96,2.5,4.5,3.77.05.03.2.05.2.05,0,0,.14-.08.28-.09,1.17.68,2.16,1.47,3.25,2.05,3.16,1.68,6.51,1.56,9.76.48,2.81-.94,5.25-.91,7.38,1.35,3.73,3.96,7.5,7.88,11.18,11.89,1.46,1.59,2.6,3.48,4.09,5.04,2.14,2.25,4.47,4.34,6.79,6.6.25.72.42,1.33.47,1.49,2.06,1.62,3.88,2.98,5.59,4.48.2.18-.24,1.09-.48,1.76-.9.24-1.72.5-2.53.49-4.82-.09-9.64-.17-14.45-.38-7.2-.31-14.27-1.49-21.35-3.44l-.05.02h0Z"/>
    <path class="st7" d="M103.39,73.78l-1.52-2.09c.06-.2.11-.41.17-.61,1.38.14,2.75.27,4.18.41.21-.96-.61-2.5-1.95-2.66-1.32-.17-2.68-.04-4.02-.04-.11-.25-.21-.49-.32-.74.51-.31,1.02-.63,1.54-.94.34-.2.7-.37,1.06-.56-.34-.25-.66-.69-1.02-.74-2.21-.26-4.42-.46-6.64-.6-.38-.02-.83.31-1.18.58-1.51,1.18-3.01,2.36-4.47,3.6-1.85,1.57-3.66,3.2-5.71,5-1.23-2.04-1.32-5.2-4.8-5.41-.67-.82-1.17-1.51-1.58-2.28,1.26-1.58-.43-2.31-.82-3.37-.44-1.18-1.05-.8-1.7-.12-.55-1.06-1.01-2.04-1.44-3.14.64-1.96-.44-1.71-1.62-1.55-.41-.94-.76-1.76-1.11-2.74.04-.9.07-1.63.11-2.56-.92,0-1.67,0-2.43-.15,0-.44,0-.73-.01-1.16-.09-.7-.18-1.26-.27-1.82.16.09.32.17.48.26.54-.64,1.1-1.28,1.62-1.93.85-1.06,1.72-2.1,2.48-3.21.37-.53.5-1.22.8-1.91.06-.07.18-.2.29-.26.19-.21.28-.35.44-.58.69-.74,1.3-1.38,1.92-2.02,1.82-1.5,3.65-2.99,5.46-4.5,1.57-1.31,3.12-2.66,4.81-4.01,3.9,4.15,7.64,8.35,11.46,12.48,2.21,2.39,4.55,4.66,6.84,6.97.97.98,1.98,1.93,3.09,2.96.64,1.9,1.11,3.75,1.69,5.56,1.81,5.68,3.64,11.36,5.48,17.03.37,1.14.61,2.39,2.22,2.57.23.03.59,1.15.45,1.65-.22.78-.97,1.41-1.19,2.18-.35,1.2-.85,2.57-.56,3.68.59,2.25.76,4.43-.37,6.41-.58,1.01-1.86,1.62-3.04,2.33-.97-1.18-1.73-2.29-2.55-3.51-1.75-2.52-3.44-4.91-5.2-7.36-.18-.11-.3-.15-.41-.16.02,0,.02.04-.03-.07-.27-.19-.5-.28-.7-.36.02,0,.02.03-.04-.08-.29-.17-.52-.23-.74-.3.02,0,.02.03-.02-.1-2.98-2.32-6.11-1.26-9.19-.59-.32.07-.5.77-.8,1.27-.24.12-.42.16-.74.2-.29.18-.45.36-.61.56,0,.02-.05.03-.2-.04-.48-.1-.81-.13-1.14-.17l-.02-.02c-.04-1.34.2-2.73-1.99-2.66-.55.02-1.91-.87-1.08-2.31.63-1.09.14-1.83-1.13-2.01-.31-.04-.72-.05-.9-.25-.52-.59-.96-1.26-1.42-1.9.78-.44,1.56-.89,2.49-1.19.33.63.52,1.12.7,1.62.16-.04.32-.08.48-.12l.12-1.65c.18-.12.37-.23.7-.24.88.86,3.02.99.81,3.01,1.5.4,2.56.68,3.63.96.75.61,1.59,1.04,2.49,1.3,1.32.37,2.66.63,4.01.89.48.09.99,0,1.49.02,3.32.13,6.64.31,9.96.39,1,.03,2.01-.19,3.01-.29,0-.18.02-.36.03-.54-3.15-1.95-6.31-3.91-9.51-5.94-.13-.18-.23-.25-.34-.31h0M77.63,61.16c-.15-.24-.3-.69-.45-.7-.87,0-1.74.1-2.83.19,1.07.74,1.76,2.12,3.29.51M75.08,55.33c-.43.1-.86.2-1.3.3.16.48.32.96.49,1.44h.54c.15-.51.31-1.04.27-1.75M76.99,57.77c-.3.07-.59.14-.89.21l.86.86c.07-.3.14-.59.04-1.06M76.52,53.75c-.06.37-.12.74-.17,1.11.2-.02.4-.03.61-.05-.07-.32-.14-.65-.43-1.06M79.91,57.98c-.09-.07-.19-.13-.28-.2.06.1.12.2.28.2M115.57,82.39c-.09-.07-.19-.13-.28-.2.06.1.12.2.28.2M72.38,49.96c.04-.1.09-.2.13-.3-.07.07-.14.14-.13.3M72.53,48.55l.08.11s-.01-.14-.08-.11M72.97,56.91s0,.02,0,0"/>
    <path class="st19" d="M127.93,35.94c2.27-4.38,4.36-8.74,6.87-12.85,1.8-2.95,3.98-5.72,6.3-8.28,2.71-2.99,4.89-2.45,6.19,1.37.68,2,1,4.12,1.54,6.5.25,2.91.45,5.5.55,8.23-.04,2.87.02,5.62.08,8.36-.49,5.58-.98,11.16-1.49,16.9-.9-.9-1.76-1.99-2.68-3.03-1.64-1.85-3.32-3.66-4.87-5.65,3.8-8.81,4.34-17.75,2.78-26.97-5,5.64-7.79,12.36-10.38,19.2-1.63-1.22-3.26-2.43-4.89-3.77h0Z"/>
    <path class="st13" d="M132.87,39.81c2.54-6.93,5.33-13.65,10.33-19.29,1.56,9.22,1.02,18.16-2.8,26.84-.25-.14-.36-.32-.57-.69-.22-.26-.34-.33-.46-.4,0,0,.06,0,.02-.05-.07-.2-.16-.29-.35-.41-.16-.18-.27-.27-.37-.35-.42-.48-.84-.96-1.36-1.49-1.01-.96-1.92-1.87-2.97-2.99-.28-.31-.42-.42-.55-.53-.29-.18-.58-.37-.92-.64h0Z"/>
    <path class="st10" d="M149.91,88.13c.55,1.64,1.14,3.27,1.62,4.93.13.44-.05.97-.09,1.46-.04.42-.26.91-.12,1.24,1.27,2.92.84,5.37-1.34,7.75-.3.33-.32.93-.48,1.55-2.5-2.66-5-5.48-7.6-8.37-.21-.56-.14-1.26-.44-1.49-1.02-.79-.37-1.52.05-2.35,1.46,1.64,2.94,2.89,5.34,1.94.13-.05.21-.13.32-.31.25-.26.46-.42.77-.65.16-.2.23-.34.29-.43,0,.05-.09.03.03-.02.19-.28.26-.52.34-.73,0,.03-.05.02.09-.03.5-1.54.85-3.02,1.21-4.51v.02h0Z"/>
    <path d="M147.86,93.9c-.21.16-.42.33-.76.62-.13.13-.29.23-.29.23-2.34.98-3.83-.26-5.25-2.04.11-2.16.06-4.32.61-6.32.84-3.04,2.01-3.28,4.48-2.66.55.3.86.47,1.17.65,0,0,.11-.11.11.07.25.59.5,1,.75,1.42,0,0,.02-.04.03.13-.04,2.34-.09,4.51-.14,6.68,0,0,.05,0-.04.05-.19.26-.28.48-.37.7,0,0,.09.02,0,.03-.16.15-.22.29-.29.43M145.19,86.03l1.24,1.67c.24-.54.49-1.07.73-1.61-.61-.12-1.22-.24-1.97-.06Z"/>
    <path class="st16" d="M109.74,92.38c.76,1.1,1.51,2.21,2.34,3.42.11.27.14.43.19.72-2.12-2.14-4.55-2.16-7.36-1.23-3.25,1.08-6.6,1.2-9.76-.48-1.09-.58-2.08-1.37-3.25-2.05-.14.01-.13.02-.11-.08-.09-.18-.2-.27-.31-.35-.04.15-.08.3-.11.45h0c-1.49-1.25-2.98-2.48-4.45-3.75-.09-.07.07-.43.27-.8.24-.25.32-.35.4-.45.28-.14.56-.27,1.08-.38.69.57,1.14,1.1,1.58,1.65,2.33,2.9,5.03,5.23,8.95,5.96.91.04,1.73-.04,2.7-.2.47-.07.79-.07,1.19.04.41-.05.74-.2,1.18-.44,1.89-.73,3.67-1.37,5.46-2.02h.01Z"/>
    <path class="st3" d="M147.83,84.25c-.33-.04-.64-.21-1.04-.45.6-.89.89-.49,1.04.45Z"/>
    <path class="st3" d="M148.7,85.71c-.28-.25-.54-.67-.84-1.2.15-.16.35-.2.7-.25.16.42.16.86.14,1.45Z"/>
    <path class="st3" d="M138.69,45.57c.09-.03.2.06.35.32.05.18.07.35.07.35-.14-.18-.27-.37-.42-.67h0Z"/>
    <path d="M139.19,46.26c-.08-.02-.1-.19-.1-.28.14-.05.23.04.3.27.03.09-.12.03-.2,0h0Z"/>
    <path d="M139.41,46.37c.08-.03.2.04.36.2-.08.03-.2-.04-.36-.2Z"/>
    <path class="st8" d="M11.59,152.21c-.15-.57-.23-1.02-.24-1.62.37-.56.72-.94.93-1.38,2.76-5.86,5.46-11.75,8.26-17.6,1.85-3.86,4.23-7.53,3.44-12.14-.06-.33.2-.72.32-.9-.24,7.36.47,14.45,1.84,21.6-.27,1.13-.58,2.14-.61,3.16-.31,11.43-.13,22.82,2.86,33.97.33,1.23.41,2.53.61,3.8-2.38-2.77-4.93-5.41-7.09-8.34-4.58-6.2-8.04-13.01-10.32-20.55Z"/>
    <path class="st12" d="M61.6,203.66c-.33.11-.65.23-1.12.36-.59-.45-1.05-.91-1.57-1.63-.11-.43-.11-.64-.2-.81-3.94-7.79-7.96-15.53-11.77-23.39-1.21-2.51-1.84-5.3-2.62-7.93.48.3.87.53,1.19.84,8.75,8.62,18.69,15.77,28.54,23.21.28.31.46.54.66.92,1.04,2.34,2.08,4.53,3.08,6.84-.91-.1-1.79-.31-2.89-.58-.44.73-1.13.63-1.76-.59-.68,1.24-1.33,1.85-2.41.66-.26-.29-.95-.2-1.47-.38-.14-.21-.27-.33-.4-.44,0,0-.08.08-.12.13.18.13.36.27.44.49-1.5-.4-2.9-.89-4.32-1.39-.94,1.06-2.11,2.37-3.28,3.68h.02,0Z"/>
    <path class="st9" d="M29.06,181.2c-.25-1.38-.33-2.68-.66-3.91-2.99-11.15-3.17-22.54-2.86-33.97.03-1.02.34-2.02.7-3.07.39.43.59.9.8,1.51,2.8,8.9,7.83,16.41,13.26,23.69.82,1.1,1.97,1.96,2.99,3.05.04.35.06.59.07.97-.67,1.06-1.2,2.12-2.02,2.84-3.82,3.38-7.72,6.67-11.59,9.99-.22-.33-.43-.66-.7-1.1h.01Z"/>
    <path class="st8" d="M29.82,182.41c3.8-3.43,7.7-6.72,11.52-10.1.82-.73,1.34-1.79,2.12-2.77.32.18.53.44.74.7.9,2.66,1.53,5.45,2.74,7.96,3.81,7.85,7.83,15.6,11.77,23.39.08.17.09.37.13.7-2.27-1.19-4.64-2.37-6.79-3.88-7.43-5.23-14.78-10.58-22.24-16h0Z"/>
    <path class="st12" d="M122.02,230.33c.12.66.54,1.45.31,1.96-4.04,9.13-7.94,18.32-13.34,26.77-.61.96-1.42,1.79-2.26,2.72.05-7.05.22-14.14.41-21.23.16-5.74.36-11.47.62-17.49.14-.71.2-1.15.36-1.59.17-.02.24-.03.42.04,4.57,2.99,9.02,5.91,13.47,8.83h.01Z"/>
    <path class="st1" d="M77.82,201.96c-1.03-2.19-2.07-4.39-2.98-6.69,1.42,1.03,2.68,2.24,4.04,3.31,6.57,5.19,13.14,10.37,19.76,15.5,2.94,2.28,6,4.41,9.01,6.72.03.26.05.41-.09.56-3.33-.71-6.54-1.31-9.67-2.17-3.88-1.07-7.69-2.37-11.53-3.57,0,0-.16-.04-.28-.18-2.83-4.59-5.54-9.03-8.24-13.48h-.02Z"/>
    <path class="st16" d="M89.15,228.8c-.13-.3-.25-.61-.3-1.12.02-.54-.04-.87-.1-1.21-.13-.54-.26-1.08-.31-1.86.48-1.41.89-2.58,1.29-3.75.13.04.26.08.4.12v2.07c2.7,1.5,5.42,3,8.15,4.52.18-.46.32-.83.53-1.39.72.93-.18,2.89,1.39,2.37.67,1.15,1.21,2.06,1.74,2.97-1.01,2-1.97,4.01-3.03,5.98-1.93,3.6-3.91,7.18-6.36,10.79-1.13-6.13-2.27-12.27-3.29-18.59.24-.43.37-.67.5-.91h-.63.02Z"/>
    <path class="st9" d="M77.8,202.09c2.73,4.32,5.44,8.77,8.19,13.34-4.34-1.84-8.73-3.78-13.1-5.77-3.27-1.49-6.53-3.01-9.77-4.58-.53-.26-.92-.81-1.45-1.32,1.1-1.41,2.27-2.72,3.21-3.78,1.42.5,2.82.98,4.32,1.39l.09-.08c.49.08,1.18,0,1.45.28,1.08,1.19,1.73.58,2.41-.66.63,1.22,1.32,1.33,1.76.59,1.1.27,1.98.49,2.89.58h0Z"/>
    <path class="st9" d="M102.04,231.43c-.63-.82-1.17-1.73-1.84-2.88-1.57.53-.67-1.44-1.39-2.37-.21.56-.36.93-.53,1.39-2.73-1.51-5.45-3.02-8.15-4.52v-2.07c-.13-.04-.26-.08-.4-.12-.41,1.17-.81,2.34-1.3,3.61-.71-2.78-1.35-5.66-1.99-8.69,3.83,1.04,7.65,2.34,11.52,3.41,3.13.87,6.34,1.46,9.75,2.21.24.03.39.09.39.09-.06.43-.12.86-.26,1.4-.71.58-1.54.93-1.91,1.56-1.35,2.25-2.55,4.59-3.9,6.99h.01Z"/>
    <path class="st9" d="M89.05,228.93c.21-.13.41-.13.62-.14-.13.24-.26.48-.5.75-.11-.14-.12-.31-.12-.61Z"/>
    <path class="st9" d="M88.66,226.62c.06.19.12.52.09.93-.08-.21-.09-.5-.09-.93Z"/>
    <path d="M133.87,40.55c.06,0,.19.11.42.31-.05,0-.2-.11-.42-.31Z"/>
    <path class="st0" d="M81.69,89.71h1.51c.08.14.15.29.23.43-2.6,2.1-5.21,4.2-7.99,6.47-.66.5-1.17.79-1.6,1.17-5.46,4.81-10.95,9.58-16.33,14.46-2.22,2.02-4.21,4.29-6.67,6.82.86-.04,1.1-.02,1.32-.07,6.48-1.59,12.94-3.26,19.44-4.74,2.41-.54,4.92-.62,7.38-.9,1.54,1.05,3.02,2.2,4.63,3.12,3.15,1.8,6.38,3.46,9.64,5.29-1.32,1.38-2.82,1.42-3.52.46-1.39.76-2.65,1.82-4.08,2.16-4.26,1.03-7.03,3.93-9.68,7.06-.93,1.09-1.75,2.27-2.72,3.51-.65-.53-1.21-1.15-1.81-1.9,1.37-1.41.32-2.73.08-4.08-.23-1.31-.2-2.67-.27-3.97.02.03.1.04.1.04,0,0-.12-.07-.12-.22-.08-.72-.33-1.34-.19-1.86.45-1.76.39-3.36-.95-4.75-.1-.11.05-.44.04-.67-.02-.4-.07-.8-.1-1.19-.4.2-.89.32-1.19.63-1.47,1.5-2.84,3.09-4.34,4.56-2.53,2.5-5.25,4.81-7.65,7.43-1.71,1.87-2.99,4.13-4.51,6.19-1.5,2.04-3.07,4.04-4.59,6.07-1.56,2.08-3.45,3.93-3.98,6.68-.11.59-1.28.99-1.94,1.32.12-.72.25-1.29.32-1.86.83-6.7,1.89-13.35,4.44-19.66.9-2.23,1.85-4.45,2.97-7.12-.75.5-1.11.71-1.43.96-3.28,2.56-6.56,5.13-9.85,7.55-.59-1.37-.68-2.49.26-3.67.62-.79.93-1.82,1.35-2.76,2.56-5.68,5.14-11.35,7.66-17.05,1.48-3.34,2.87-6.72,4.33-10.1.03-.02.04-.11.04-.11,0,0-.08.12-.22.14-.85.33-1.58.58-2.25.95-8.24,4.49-15.42,10.33-21.69,17.3-.28.31-.71.47-1.07.7l-.48-.43c1.13-2.13,2.38-4.21,3.38-6.4,2.3-5.08,4.53-10.2,6.7-15.34,2.15-5.09,4.22-10.22,6.29-15.34.57-1.41,1.02-2.88,1.52-4.32h.11c.3-.15.48-.27.82-.39,2.28.12,4.4.22,6.52.37,5.22.38,10.45.67,15.66,1.21,4.85.5,9.67,1.26,14.51,1.91-1.7,1.1-3.39,2.21-5.1,3.31-.58.38-1.18.74-1.98,1.24-7.61,4.22-14.69,8.8-21.28,14.18,9.5-1.46,18.98-2.74,28.33-4.77v-.02h0Z"/>
    <path class="st2" d="M41.8,148.96c.68-.49,1.85-.88,1.97-1.47.53-2.76,2.42-4.6,3.98-6.68,1.52-2.03,3.09-4.02,4.59-6.07,1.52-2.06,2.8-4.32,4.51-6.19,2.39-2.62,5.12-4.93,7.65-7.43,1.49-1.47,2.87-3.07,4.34-4.56.3-.31.79-.42,1.19-.63.04.4.09.79.1,1.19,0,.23-.15.56-.04.67,1.34,1.39,1.4,2.98.95,4.75-.13.52.12,1.14.19,1.86.09,1.49.06,2.84.29,4.15.24,1.35,1.29,2.68-.21,4.05-1.6,2.62-3.18,5.11-4.6,7.69-.6,1.1-.88,2.38-.88,3.72-.66.52-1.32,1.03-1.71,1.33.46.87.76,1.44.85,1.97-.52.54-1.11,1.15-1.07,1.71.35,5.05.31,10.19,1.34,15.11,1.65,7.83,3.97,15.53,6.15,23.24.57,2.01,1.68,3.86,2.54,5.92.01.41.02.69.03.96-9.76-7.37-19.71-14.52-28.45-23.14-.32-.31-.71-.54-1.19-.84-.33-.29-.54-.55-.85-.88-.13-.31-.15-.54-.18-1.06-1.44-6.57-1.75-12.95-1.5-19.38h0Z"/>
    <path class="st11" d="M73.93,193.15c-.86-1.92-1.97-3.78-2.54-5.78-2.18-7.71-4.5-15.41-6.15-23.24-1.03-4.91-1-10.06-1.34-15.11-.04-.56.55-1.17.95-1.69.11.14.11.21.16.52.66,1.05,1.27,1.86,1.96,2.79.56.68,1.05,1.26,1.54,1.82l.06.09c.29.17.5.26.71.41,0,.07,0,.2-.06.25-.01.17.02.29.06.4l.07.08c.29.16.49.24.7.31h-.01c1.22,1.64,2.33,3.39,3.68,4.91,3.39,3.8,7.03,7.38,10.33,11.26,3.96,4.64,9.15,7.7,13.94,11.26,3.92,2.92,8.07,5.55,12.14,8.28.68.46,1.48.75,2.43,1.23.56.38.91.64,1.22,1.05-.26.75-.53,1.34-.67,1.96-.63,2.76-1.23,5.54-1.82,8.31-.48,2.23-.93,4.46-1.39,6.69-.38,1.8-.84,3.59-1.12,5.41-.22,1.43-.24,2.9-.44,4.46-.03.94.03,1.78.1,2.61-.07,0-.14,0-.31.03-.1,0-.26-.05-.34-.08-.1-.18-.12-.33-.16-.72-.99-2.42-1.93-4.6-2.93-6.76-2.3-4.99-4.59-9.98-6.96-14.93-.84-1.74-1.91-3.38-2.87-5.06v-.16c-.21-.95-.36-1.77-.64-2.54-1.34-3.74-2.72-7.47-4.09-11.2-.48-1.32-.98-2.63-1.58-4.23-1.03.88-1.69,1.3-2.17,1.89-.89,1.08-1.64,2.27-2.49,3.38-2.87,3.74-7.06,6.4-8.98,10.94-.19.44-.65.77-.98,1.16h0Z"/>
    <path class="st8" d="M102.09,155.23c7.96,4.51,16.51,6.36,25.37,7.34,5.93.66,11.8,1,17.65-.43.75-.18,1.49-.42,2.41-.63.31.03.4-.02.45-.14,0,0,.11-.02.32,0,.54.29.87.56,1.12.92-.91.6-1.68,1.23-2.55,1.59-5.95,2.44-11.92,4.82-18.01,7.22-.56.12-.99.25-1.54.27-3.03-.55-6.03-.68-8.83-1.5-5.34-1.56-10.56-3.52-15.84-5.28-.86-.29-1.8-.34-2.75-.6-.16-.28-.27-.47-.42-.76-.19-.28-.33-.46-.33-.68,1.04-2.19,1.92-4.34,2.97-6.87-1.74.2-2.88.34-2.54-1.33.8.28,1.6.57,2.54.88h-.02Z"/>
    <path class="st9" d="M100.13,164.07c.9.16,1.84.22,2.71.51,5.28,1.75,10.5,3.72,15.84,5.28,2.8.82,5.8.95,8.81,1.63-.06.51-.21.79-.39,1.05-4.33,6.23-8.67,12.46-13.02,18.8-.02.24-.03.38-.03.52-.36-.26-.71-.52-1.13-.89-1.81-3.54-3.63-6.94-5.3-10.41-2.48-5.15-4.86-10.36-7.39-15.63-.1-.09-.09-.08-.09-.21v-.65h0Z"/>
    <path class="st12" d="M98.98,162.58c.14.18.29.35.4.72.16.64.35,1.1.54,1.55h0c-.07,1.54-.84,2.16-2.39,1.83-1.27-.27-2.26.03-2.71,1.42-.13.39-.44.83-.79,1.02-1.82.98-3.68,1.88-5.78,2.94-3.34-6.97-6.28-13.7-7.94-21.03.69.16,1.26.44,1.78.77,5.63,3.59,11.26,7.19,16.88,10.78"/>
    <path class="st16" d="M99.12,162.54c-5.77-3.55-11.4-7.15-17.03-10.74-.53-.34-1.1-.61-1.78-.93-.47-.68-.79-1.35-1.31-2.42,7.12.58,13.48,2.31,19.71,5.4.39.3.61.41.83.52v-.03c-.33,1.66.82,1.52,2.55,1.32-1.04,2.53-1.93,4.68-2.97,6.87h0Z"/>
    <path class="st2" d="M69.28,153.16s0-.13-.06-.3c-.28-.24-.5-.32-.71-.4,0,0,.02,0,.01-.16.13-1.36-.37-1.93-1.61-1.77-.62-.81-1.23-1.62-1.88-2.57,1.22-.3,2.13.06,2.9,1.18.59.87,1.55,1.49,2.1,2,.84-.11,1.86-.42,1.96-.23.4.74.67,1.64-.67,1.99-.41.1-.69.69-1.15,1.09-.12.03-.11.02-.18-.06-.28-.16-.49-.23-.7-.31v-.11c0-.19,0-.26-.01-.34h0Z"/>
    <path class="st8" d="M99.47,154.28c-.15,0-.38-.12-.66-.35.16,0,.37.13.66.35Z"/>
    <path class="st2" d="M82.1,144.73l.11.04s-.09,0-.11-.04Z"/>
    <path class="st19" d="M75.82,40.32c-.56.77-1.17,1.42-1.97,2.22-.26.3-.35.44-.44.58,0,0-.13.13-.3.2-2.05,1.77-3.92,3.46-5.87,5.19-.09.04-.26.1-.28-.06-.54-3.79-.92-7.44-1.59-11.04-1.15-6.22-2.57-12.38-5.48-18.06-.27-.53-.82-.91-1.24-1.36-.47.47-1.13.86-1.39,1.42-3.41,7.41-5.11,15.24-5.38,23.38-.2,5.99.75,11.81,2.71,17.55,0,.09-.04.26-.08.38-.53.69-1.02,1.25-1.61,1.87-.29.28-.48.5-.78.78-.68.68-1.25,1.31-1.92,2-.17.26-.25.45-.32.65,0,0,0-.02-.11-.02-.18.14-.23.27-.28.41,0,0,0-.02-.11-.02-.18.14-.24.27-.28.4,0,0,0-.02-.1-.02-.18.14-.24.27-.28.4,0,0,0-.03-.1-.01-.17.14-.24.27-.29.4,0,0,.02-.02-.11,0-.24.14-.35.26-.57.45-.99.9-1.88,1.73-2.77,2.48,0-.08-.04-.22-.02-.39-.17-2.26-.35-4.35-.53-6.6-.1-2.1-.2-4.04-.29-6.13,0-.45-.02-.75-.02-1.23v-5.75c.02-.31,0-.49.02-.84.19-2.38.35-4.59.65-6.86.65-3.44,1.17-6.83,1.68-10.22,0,0-.02.03.05-.1.19-1.01.31-1.88.43-2.75,1.51-5.89,3.35-11.66,6.57-16.88,2.84-4.6,5.32-4.84,8.61-.59,5.31,6.85,8.77,14.71,11.87,22.73.67,1.74,1.22,3.53,1.88,5.43h.04Z"/>
    <path class="st17" d="M44.03,56.37c.02.3.04.6-.06,1.18.05,2.24.21,4.2.37,6.16.18,2.09.36,4.18.43,6.36-.48-.72-.85-1.53-1.3-2.51-1.54,0-3.39.04-5.23-.02-.55-.02-1.1-.28-1.62-.51-1.26-.55-2.51-1.15-3.76-1.9.57-4.03,1.04-7.92,1.77-11.75.28-1.48.16-3.54,2.08-4.06,1.38-.37,2.26-2.59,4.16-1.22.03.02.78-.6.77-.92,0-1.18-1.05-1.53-2.22-.79-1.58,1-3.33.11-3.41-1.74v-.02c1.13.13,2.25.38,3.37.37.61,0,1.22-.44,1.83-.67l-.18-.61h-1.36c.9-2.37,2.9-.44,4.25-1.12,0,2.37-.12,4.58-.36,6.81-1.3.28-.87.72-.23,1.34,0,.88-.09,1.6.02,2.29.16,1.12.45,2.22.69,3.33h0Z"/>
    <path class="st18" d="M46.28,32.59c-.4,3.28-.91,6.67-1.56,9.94-.11-.82-.08-1.52-.05-2.22.5-2.54.99-5.07,1.61-7.72Z"/>
    <path class="st7" d="M44.55,40.42c.09.59.06,1.29.03,2.17-.16,2.38-.33,4.59-.59,6.93-.19.04-.26-.06-.32-.16.12-2.21.23-4.42.38-6.79.14-.78.26-1.4.5-2.13,0,0,0-.02,0-.02Z"/>
    <path class="st18" d="M46.84,29.78c-.08.72-.2,1.6-.41,2.59.06-.73.21-1.59.41-2.59Z"/>
    <path class="st2" d="M94.93,130.53c.41-.22.81-.3,1.2-.39-.07.38-.14.76-.21,1.14-.34-.21-.67-.42-.99-.75Z"/>
    <path class="st1" d="M51.85,95.09c-1.43,3.36-2.81,6.75-4.29,10.09-2.52,5.7-5.1,11.37-7.66,17.05-.42.94-.73,1.97-1.35,2.76-.94,1.19-.84,2.31-.37,3.74-1.68,1.8-3.37,3.3-4.82,5-2.19,2.56-4.22,5.25-6.32,7.89-.2-.47-.4-.93-.7-1.49-1.56-7.11-2.27-14.2-1.96-21.71,1.32-7.67,2.57-15.02,3.86-22.36.29-1.64.74-3.24,1.12-4.86.18-.82.37-1.64.74-2.65.82-1.39,2.31-2.32,1.3-4.04-.09-.16.57-1.07.76-1.03,2.23.45,2.68-1.58,3.74-2.66,2.78-2.82,5.48-5.72,8.21-8.59-.5,1.44-.95,2.91-1.52,4.32-2.07,5.13-4.14,10.25-6.29,15.34-2.17,5.14-4.4,10.26-6.7,15.34-.99,2.19-2.24,4.27-3.38,6.4l.48.43c.36-.23.8-.39,1.07-.7,6.27-6.97,13.45-12.8,21.69-17.3.67-.37,1.41-.62,2.25-.95,0,0,.14-.02.14-.02Z"/>
    <path class="st9" d="M29.26,91.14c-.29,1.68-.75,3.29-1.04,4.93-1.29,7.34-2.54,14.68-3.87,22.18-.18.51-.43.9-.37,1.23.79,4.61-1.6,8.28-3.44,12.14-2.79,5.84-5.5,11.73-8.26,17.6-.21.44-.56.82-.98,1.25-.52-3.67-1.15-7.37-1.26-11.08-.28-9.43,1.2-18.7,3.18-27.89.05-.24.02-.5-.04-.87-.07-.12-.08-.21-.08-.38,0-.25,0-.34-.02-.42,0,0-.01,0,.12-.02.31-.4.48-.77.66-1.14,0,0-.01,0,.07-.07.16-.28.23-.49.31-.7,1.79-2.42,3.47-4.94,5.4-7.24,2.71-3.24,5.6-6.34,8.45-9.46.18-.2.71-.08,1.16-.04v-.02h.01Z"/>
    <path class="st0" d="M44.1,72.23c-2.73,2.87-5.43,5.77-8.21,8.59-1.07,1.08-1.51,3.11-3.74,2.66-.19-.04-.85.87-.76,1.03,1.01,1.72-.48,2.65-1.23,3.92.46-6.55,1.04-13.18,1.78-20,.29-.41.42-.62.68-.84.72.04,1.3.08,1.87.12.03-.09.05-.19.08-.28-.58-.34-1.15-.67-1.73-1.15v-1.01c1.25.58,2.5,1.18,3.76,1.73.52.23,1.07.49,1.62.51,1.84.06,3.69.02,5.23.02.45.97.82,1.78,1.28,2.68.1.08.14.23.13.45-.02.42-.03.62-.16.84-.29.26-.46.49-.64.73,0,0,.04,0,.04,0Z"/>
    <path class="st10" d="M32.86,65.09c0,.46,0,.75-.1,1.27-.15.57-.22.9-.28,1.22-.12.22-.25.43-.49.7.32-3.08.76-6.2,1.19-9.49.84-4.79,1.68-9.43,2.68-14.12.23,1.79,1.98,2.68,3.56,1.68,1.17-.74,2.22-.39,2.22.79,0,.32-.74.95-.77.92-1.9-1.37-2.78.85-4.16,1.22-1.92.52-1.8,2.57-2.08,4.06-.73,3.83-1.2,7.72-1.77,11.75Z"/>
    <path class="st6" d="M7.67,100.28c.19-.26.38-.36.67-.5-.07.56-.24,1.17-.54,1.84-.13.07-.15.05-.15.05,0-.41.01-.82.02-1.39Z"/>
    <path class="st19" d="M13.75,108.69c-.05.34-.23.71-.53,1.12.05-.34.23-.71.53-1.12Z"/>
    <path class="st6" d="M9.32,97.72c-.03-.24.04-.57.2-.99.03.24-.04.58-.2.99Z"/>
    <path class="st6" d="M8.54,99.66c-.03-.25.04-.58.2-.99.03.24-.04.58-.2.99Z"/>
    <path class="st6" d="M7.3,102.86c-.03.24-.06.49-.09.73-.08-.02-.17-.03-.25-.05.05-.2.09-.39.22-.65.09-.06.11-.04.11-.04h.01Z"/>
    <path class="st6" d="M7.27,102.83c.06-.33.14-.65.3-1.07.08-.09.11-.08.12-.07-.06.33-.13.66-.29,1.07-.09.09-.11.07-.12.06h-.01Z"/>
    <path class="st6" d="M9.7,96.58c-.02-.15.05-.36.21-.65.02.14-.05.36-.21.65Z"/>
    <path class="st19" d="M14.17,107.96c0,.13-.07.34-.23.63,0-.13.07-.34.23-.63Z"/>
    <path class="st6" d="M8.92,98.52c-.03-.15.04-.36.2-.64.02.15-.04.36-.2.64Z"/>
    <path class="st19" d="M13.05,109.87c.06.03.07.12.07.33-.04,0-.08-.14-.07-.33Z"/>
    <path class="st14" d="M149.48,30.78c-.2-2.6-.39-5.19-.59-7.97.26.7.7,1.56.77,2.46.27,3.64.44,7.29.6,10.93.02.33-.25.68-.55.9-.18-2.19-.21-4.25-.23-6.32h0Z"/>
    <path class="st18" d="M149.38,30.9c.12,1.94.14,4.01.19,6.25,0,.71-.05,1.25-.1,1.94-.07-2.58-.13-5.33-.09-8.2h0Z"/>
    <path class="st10" d="M142.18,222.47c-.03.31-.04.48-.03.77-.12.31-.24.49-.38.78-.39-.42-.92-.9-1.12-1.5-.51-1.52-.82-3.1-1.31-4.62-1.28-3.94-2.59-7.87-3.92-11.79-.45-1.33-.96-2.65-1.55-3.93-.9-1.96-2.07-3.81-2.09-6.31-.09-.29-.09-.35-.09-.51v-.29l.11-.06c1.3-1.75,2.55-3.38,3.66-5.11,2.78-4.32,5.5-8.68,8.34-13.08.29-.29.48-.52.67-.75.87,1.51,1.83,2.97,2.6,4.53,1.56,3.17,3.01,6.39,4.51,9.59.67,1.42,1.45,2.8,1.97,4.27.23.65-.05,1.48-.12,2.37-1.03,2.92-1.9,5.75-3.07,8.45-1.82,4.18-3.84,8.28-5.8,12.4-.74,1.56-1.55,3.08-2.37,4.76v.03h-.01Z"/>
    <path class="st12" d="M144.52,175.97c-.25.36-.44.59-.71.75-.33-.32-.57-.78-.82-.79-.48-.02-1,.41-1.44.33-2.01-.35-3.98-.98-6-1.2-2.04-.23-4.12-.1-6.24-.27-.15-1.33-.24-2.52-.33-3.7,5.96-2.4,11.93-4.78,17.88-7.22.88-.36,1.65-.99,2.68-1.62.85-.43,1.48-.73,2.11-1.03-.77,1.8-1.47,3.64-2.33,5.4-1.53,3.11-3.15,6.16-4.8,9.37v-.02h0Z"/>
    <path class="st6" d="M151.74,161.11c-.73.39-1.36.69-2.12,1.03-.46-.23-.8-.5-1.28-.78,1.89-1.16,3.92-2.31,6.09-3.45-.78,1.04-1.69,2.08-2.69,3.21h0Z"/>
    <path class="st6" d="M154.71,157.97c.04-.32.22-.57.52-.83-.05.29-.22.6-.52.83Z"/>
    <path class="st6" d="M155.85,156.75c-.06-.13,0-.25.17-.4.05.12,0,.27-.17.4Z"/>
    <path class="st6" d="M156.23,156.33c0-.1.1-.22.35-.37,0,.1-.1.23-.35.37Z"/>
    <path class="st6" d="M155.48,157.15c-.07-.15,0-.27.15-.4.06.13.02.28-.15.4Z"/>
    <path class="st10" d="M149.57,105.66c.3.07.67.25,1.06.55-.31-.06-.66-.25-1.06-.55Z"/>
    <path class="st14" d="M144.84,122.51c-.16-.04-.33-.17-.51-.3.04-.04.08-.09.12-.13.12.11.25.23.39.44h0Z"/>
    <path class="st10" d="M150.68,106.45c.11.07.23.25.37.55-.11-.07-.23-.25-.37-.55Z"/>
    <path class="st10" d="M151.11,107.19c.1.01.25.1.37.25-.15,0-.24-.08-.37-.25Z"/>
    <path class="st14" d="M150.41,122.27c.07.07.02.13,0,.15-.15-.1-.27-.22-.38-.34.11.04.21.08.39.19h0Z"/>
    <path class="st6" d="M147.88,161.37c.03.12-.06.17-.22.1-.04-.04.13-.08.22-.1Z"/>
    <path class="st17" d="M113.79,192c.05-.29.05-.43.18-.58,2.1.7,4.04,1.58,6.07,2.09,2.19.55,4.14,2.32,6.69,1.38.21.49.42.98.52,1.2,1.52.2,2.78.37,4.04.53-.83,3.81-1.67,7.62-2.65,11.43-1.34-1.17-4.56-1.73-5.76-.78-1.38,1.09-2.59,2.4-3.87,3.61.08.12.16.24.24.37l1.8-.4c.06.23.11.46.17.68-.72.15-1.45.25-2.14.46-.81.24-1.6.57-2.39.87,1.18,2.4-1.14,1.34-1.85,1.86-.3.22-.7.35-.95.61-1.23,1.29-2.42,2.62-3.62,3.92-.63-.19-1.23-.36-1.83-.54.11-1.45.12-2.92.35-4.35.28-1.82.75-3.61,1.12-5.41.47-2.23.92-4.46,1.39-6.69.59-2.77,1.19-5.54,1.82-8.31.14-.62.41-1.21.67-1.96h0Z"/>
    <path class="st0" d="M108.34,218.83c.69.07,1.28.24,1.92.43,1.2-1.31,2.39-2.63,3.62-3.92.25-.27.65-.39.95-.61.71-.53,3.03.53,1.85-1.86.8-.29,1.58-.63,2.39-.87.7-.21,1.43-.31,2.14-.46-.06-.23-.11-.46-.17-.68l-1.8.4c-.08-.12-.16-.24-.24-.37,1.28-1.21,2.49-2.52,3.87-3.61,1.2-.95,4.42-.39,5.67.9-1.7,7.27-3.45,14.43-5.29,21.69-.41.18-.74.24-1.15.39-4.54-2.83-9-5.75-13.56-8.74-.17-.9-.24-1.73-.21-2.68h.01Z"/>
    <path class="st2" d="M131.76,196.51c-1.28-.06-2.54-.22-4.06-.43-.1-.22-.31-.71-.52-1.2-2.55.94-4.5-.83-6.69-1.38-2.03-.51-3.97-1.39-6.06-2.19,4.23-6.32,8.57-12.55,12.91-18.78.18-.26.33-.54.51-.95.45-.26.88-.38,1.44-.51.22,1.19.31,2.38.46,3.87.19,1.87.26,3.43.45,4.98.62,5.06,1.29,10.11,1.94,15.17l-.05.03c-.11.16-.09.26.04.34v.29c-.12.28-.24.46-.38.75h.01Z"/>
    <path d="M15.06,83.89c.1-.09.18-.1.26-.1,0,.06,0,.15-.02.16-.08.02-.17.02-.24-.06Z"/>
    <path class="st1" d="M100.29,131.91c-.07-.08-.15-.16-.22-.25-.02-.02.03-.08.04-.13.05.07.11.15.17.3v.07h.01Z"/>
    <path class="st3" d="M148.7,92.63c-.09-2.12-.04-4.29-.02-6.62.38.5.78,1.16,1.21,1.97-.33,1.63-.69,3.12-1.18,4.65h-.01Z"/>
    <path class="st14" d="M161.39,84.74c.05-.11.15-.17.25-.23-.07.09-.13.19-.25.23Z"/>
    <path class="st16" d="M1.1,130.51c-.03-.16-.07-.34-.11-.52.04.11.07.22.12.42,0,.1-.02.09,0,.1h0Z"/>
    <path class="st17" d="M44.85,71.48c0-.2.02-.4.04-.75.9-.98,1.79-1.81,2.89-2.75.33-.22.45-.32.58-.43,0,0,0,.03.07-.03.15-.16.23-.26.31-.37,0,0,0,.03.07-.03.15-.15.23-.26.31-.36,0,0,0,.03.07-.03.15-.16.23-.26.31-.36,0,0,0,.03.07-.03.15-.15.23-.26.31-.36,0,0,0,.03.08-.04.16-.26.24-.46.32-.65.57-.63,1.14-1.26,1.94-1.97.41-.32.59-.57.76-.81.49-.57.98-1.13,1.61-1.85.21-.26.29-.36.49-.51,1.97-1.93,3.82-3.81,5.76-5.75.19-.17.28-.29.47-.43.27-.24.43-.45.68-.7.08-.04.25-.07.39-.08.41-.31.68-.61,1-.89.05.02,0,.11.11.05.18-.28.25-.51.33-.72,0,0-.02,0,.08-.02.17-.16.23-.29.29-.39,0,.02-.05.02.06,0,.19-.13.27-.24.39-.39.03-.03.11,0,.26.03.26.04.36.06.47.19.91.4,1.82.69,2.72.98,0,.29,0,.58-.13,1.02-.56.21-.99.28-1.22.32.7.75,1.23,1.49,1.93,2.01.46.34,1.15.37,1.74.53.35.82.7,1.64,1.17,2.7.59.68,1.06,1.12,1.54,1.57.45.97.91,1.95,1.53,3.13.9,1.29,1.63,2.37,2.36,3.45.5.69,1,1.38,1.52,2.19,1.15,2.03,2.27,3.92,3.38,5.82.06.11-.03.3-.14.49-4.93-.62-9.75-1.39-14.6-1.88-5.21-.53-10.44-.83-15.66-1.21-2.12-.15-4.25-.25-6.53-.46-.16-.09-.18-.27-.18-.27M68.07,56.55c.02.11.04.23.06.34.03-.11.05-.22-.06-.34Z"/>
    <path class="st7" d="M79.05,112.81c-2.53.4-5.05.47-7.45,1.02-6.5,1.47-12.96,3.15-19.44,4.74-.22.05-.46.03-1.32.07,2.46-2.54,4.45-4.81,6.67-6.82,5.38-4.89,10.87-9.66,16.33-14.46.43-.38.94-.67,1.53-1.05-.11,3.05.13,3.1,3.17,4.36,2.45,1.01,4.63,2.69,7.06,3.77,2.08.92,4.33,1.48,6.53,2.08,2.08.57,2.13.59,1.14,2.84-1.51-1.66-2.56-.69-4.16.19-2.02,1.12-4.61,1.18-6.92,1.83-1.07.3-2.05.88-3.14,1.45,0,0,0-.02,0-.02Z"/>
    <path class="st10" d="M81.63,89.17c-9.28,2.15-18.76,3.43-28.26,4.89,6.58-5.38,13.66-9.96,21.21-14.07,1.36.21,2.47.81,3.83-.04,1-.62,1.3.37,1.09,1.24-.15.61-.49,1.16-.81,1.88,1.91.69,2.2,1.96,1.69,3.8-.16.57.77,1.45,1.26,2.3h-.01Z"/>
    <path d="M109.67,92.25c-1.72.77-3.5,1.41-5.53,2.17-.54.18-.82.25-1.11.32-.32,0-.65,0-1.26.08-1.07.08-1.86.07-2.64.06-3.83-.61-6.53-2.94-8.86-5.84-.44-.55-.89-1.08-1.46-1.66-.02-.2.09-.37.34-.66.23-.21.32-.3.37-.45-.05-.05.06.05.14.03.19-.05.28-.12.4-.22.06,0,.08-.12.17-.16.37-.25.65-.45.92-.65,0,0,.04,0,.16-.08.29-.22.46-.36.64-.51.19-.04.37-.08.75-.24,3.37-1.74,6.6-1.65,9.89-.51,0,0,0-.03.05.07.28.17.51.24.73.32,0,0,0-.03.05.07.26.19.47.29.69.38,0,0,0-.05.04.05.16.11.29.12.42.14,1.69,2.39,3.37,4.79,5.13,7.3M103.29,87c.36-1.76-1.08-1.8-2.09-1.95-.41-.06-.94.72-1.42,1.11.72.52,1.4,1.13,2.18,1.53.25.13.77-.28,1.33-.69Z"/>
    <path class="st14" d="M103.78,74.17c3.15,1.95,6.31,3.91,9.46,5.86,0,.18-.02.36-.03.54-1,.1-2.01.32-3.01.29-3.32-.09-6.64-.26-9.96-.39-.5-.02-1.01.07-1.49-.02-1.35-.25-2.69-.52-4.01-.89-.89-.25-1.73-.69-2.49-1.3-1.07-.28-2.14-.57-3.63-.96,2.21-2.02.07-2.15-.7-3.03,4.98-1.88,10.04-2.26,15.31-.51.15,0,.16,0,.21.08.13.18.23.25.34.31v.02Z"/>
    <path class="st14" d="M86.97,74.55c.1.55.06,1.1.02,1.65-.16.04-.32.08-.48.12-.18-.49-.37-.98-.55-1.62.29-.15.58-.15,1.02-.15h0Z"/>
    <path class="st7" d="M89.06,86.14c-.16-.29-.32-.57-.47-.86.33-.09.66-.17,1.11-.26.13,0,.14.01.17.18.1.37.18.57.26.77,0,0-.03.11-.17.1-.28.03-.36.12-.39.25,0,0-.1-.1-.18-.1-.16-.03-.24-.06-.33-.08Z"/>
    <path class="st7" d="M87.52,87.76c0,.1-.07.2-.24.35,0-.09.07-.22.24-.35Z"/>
    <path class="st3" d="M89.05,86.27c.09-.1.18-.08.38,0,.03.15-.07.23-.25.35-.11-.06-.12-.14-.13-.36h0Z"/>
    <path class="st16" d="M91.77,92.76l-.15.07s-.15-.02-.2-.05c-.05-.03-.05-.02.05,0h.3s0-.02,0-.02Z"/>
    <path class="st11" d="M68.12,51.93c-.9-.14-1.8-.43-2.63-.94.13-.46.18-.71.26-.94.03.02-.02.07.07,0,.17-.19.25-.31.37-.52.25-.26.45-.43.76-.65.19-.17.28-.29.37-.41,1.87-1.69,3.74-3.39,5.73-5.09-.12.61-.26,1.3-.62,1.83-.76,1.11-1.64,2.15-2.48,3.21-.53.66-1.08,1.29-1.62,1.93-.16-.09-.32-.17-.48-.26.09.56.18,1.11.27,1.82,0,0,0,.02,0,.02Z"/>
    <path class="st11" d="M70.45,56.27c-.59,0-1.29-.03-1.74-.38-.7-.52-1.23-1.26-1.93-2.01.23-.04.66-.1,1.22-.17h2.57c-.04.92-.08,1.66-.11,2.56,0,0-.01,0-.01,0Z"/>
    <path class="st3" d="M102.54,83.8c-3.24-1.01-6.48-1.09-9.8.56.1-.37.29-1.07.61-1.14,3.08-.67,6.21-1.73,9.19.59h0Z"/>
    <path class="st11" d="M77.14,66.72c-.83-1-1.56-2.08-2.36-3.28.48-.89,1.1-1.27,1.53-.09.39,1.06,2.08,1.79.82,3.37h.01Z"/>
    <path class="st11" d="M77.58,61.27c-1.47,1.5-2.17.12-3.24-.62,1.09-.09,1.96-.19,2.83-.19.15,0,.3.45.4.81h0Z"/>
    <path class="st11" d="M75.18,55.42c-.06.62-.21,1.14-.36,1.67h-.54c-.16-.49-.32-.97-.49-1.46.43-.1.86-.2,1.4-.21h-.01Z"/>
    <path class="st11" d="M73.18,60.09c-.5-.31-.98-.76-1.51-1.32,1.06-.4,2.15-.64,1.51,1.32Z"/>
    <path class="st11" d="M77.08,57.85c.02.38-.05.68-.12.98l-.86-.86c.3-.07.59-.14.98-.12Z"/>
    <path class="st11" d="M76.63,53.8c.18.37.25.69.32,1.01-.2.02-.4.03-.61.05.06-.37.12-.74.28-1.07h.01Z"/>
    <path class="st3" d="M90.22,85.92c-.17-.15-.24-.36-.34-.72.31-.13.64-.1,1.12,0-.13.27-.4.47-.77.72h-.01Z"/>
    <path class="st11" d="M79.86,58.02c-.11-.05-.17-.15-.23-.25.09.07.19.13.23.25Z"/>
    <path class="st14" d="M115.52,82.44c-.11-.05-.17-.15-.23-.25.09.07.19.13.23.25Z"/>
    <path class="st11" d="M72.34,49.92c.03-.11.1-.19.17-.26-.04.1-.09.2-.17.26Z"/>
    <path class="st3" d="M103.29,84.21c-.16.03-.38-.04-.68-.21.16-.03.39.04.68.21Z"/>
    <path class="st3" d="M104.04,84.65c-.16.02-.37-.07-.65-.26.15-.01.38.07.65.26Z"/>
    <path class="st3" d="M91.81,84.69c-.04.14-.22.29-.5.49.05-.13.21-.3.5-.49Z"/>
    <path class="st11" d="M72.56,48.53l.04.13s-.08-.11-.04-.13Z"/>
    <path class="st11" d="M73.52,43.05c-.02-.07.07-.21.26-.42.02.07-.07.21-.26.42Z"/>
    <path class="st3" d="M104.47,84.89c-.06.04-.18.03-.37-.07.07-.07.19-.04.37.07Z"/>
    <path class="st11" d="M103.73,74.09c-.06.02-.16-.06-.29-.23.06-.02.16.06.29.23Z"/>
    <path class="st3" d="M148.28,93.39c-.03-.17.06-.39.24-.68.02.16-.05.4-.24.68Z"/>
    <path class="st3" d="M147.95,93.83c-.03-.07.03-.21.19-.41.03.08-.03.21-.19.41Z"/>
    <path class="st3" d="M146.86,94.79c-.05-.04.11-.14.2-.18,0,.05-.07.13-.2.18Z"/>
    <path class="st17" d="M145.27,85.89c.68-.03,1.29.09,1.9.21-.24.54-.49,1.07-.73,1.61-.41-.56-.83-1.11-1.17-1.82Z"/>
    <path class="st11" d="M99.21,95c.7-.12,1.48-.11,2.41-.11-.68.07-1.5.15-2.41.11Z"/>
    <path class="st11" d="M103.11,94.84c.21-.17.49-.24.92-.33-.18.13-.52.28-.92.33Z"/>
    <path class="st11" d="M91.79,92.68c-.09.11-.15.12-.32.12-.06-.16-.02-.31.02-.47.11.08.22.17.31.35h0Z"/>
    <path class="st17" d="M94.87,193.92c.96,1.68,2.04,3.31,2.87,5.06,2.37,4.95,4.66,9.95,6.96,14.93,1,2.16,1.94,4.34,2.92,6.65-2.99-2.07-6.05-4.2-8.99-6.48-6.62-5.12-13.19-10.31-19.76-15.5-1.36-1.07-2.61-2.28-4.04-3.46-.32-.26-.5-.49-.78-.8-.1-.35-.11-.62-.12-1.04.33-.52.79-.85.98-1.29,1.92-4.53,6.11-7.19,8.98-10.94.85-1.11,1.61-2.3,2.49-3.38.48-.58,1.14-1.01,2.17-1.89.6,1.6,1.1,2.91,1.58,4.23,1.37,3.73,2.74,7.46,4.09,11.2.28.77.43,1.59.61,2.55-.03.17-.04.26-.04.26l.07-.12v.02h.01Z"/>
    <path class="st9" d="M69.29,201.28c-.18-.13-.36-.27-.54-.4.04-.04.12-.13.12-.13.13.11.25.22.4.44.01.07.02.1.02.09Z"/>
    <path class="st12" d="M27.04,141.77c2.09-2.78,4.12-5.48,6.31-8.04,1.45-1.7,3.13-3.2,4.82-4.86,3.39-2.63,6.67-5.2,9.95-7.76.32-.25.68-.46,1.43-.96-1.12,2.68-2.07,4.89-2.97,7.12-2.56,6.31-3.61,12.96-4.44,19.66-.07.57-.2,1.14-.32,1.86-.27,6.58.04,12.96,1.46,19.42-1.01-.81-2.16-1.66-2.99-2.77-5.42-7.27-10.45-14.78-13.26-23.69v.02h.01Z"/>
    <path class="st1" d="M44.73,71.5c.12-.02.13.16.14.25-.18.21-.37.33-.66.47.06-.22.24-.46.53-.72h0Z"/>
    <path class="st2" d="M71.24,124.58l.1.04s-.09,0-.1-.04Z"/>
    <path class="st1" d="M51.85,95.09l.08-.12s0,.09-.04.11-.03.02-.03.02h-.01Z"/>
    <path class="st1" d="M66.97,150.64c1.17-.27,1.68.31,1.54,1.67-.49-.41-.98-.99-1.54-1.67Z"/>
    <path class="st1" d="M69.36,153.7c.13,0,.34.07.63.23-.13,0-.34-.07-.63-.23Z"/>
    <path class="st1" d="M68.57,152.55c.14,0,.36.07.64.25-.14,0-.36-.08-.64-.25Z"/>
    <path class="st1" d="M69.23,153.21c.05.02.06.1.06.29-.04,0-.07-.12-.06-.29Z"/>
    <path class="st1" d="M99.92,164.72c-.19-.33-.38-.78-.5-1.32.18.1.29.29.45.57.05.27.05.44.05.75Z"/>
    <path class="st13" d="M66.86,48.95c-.21.17-.41.33-.76.65-.21.28-.29.4-.36.53,0,0,.04-.05-.1,0-.38.28-.62.52-.86.76,0,0-.08-.04-.21,0-.22.16-.31.27-.39.38,0,0,.05,0-.05.03-.16.14-.23.26-.3.38,0,0,.03,0-.06.07-.18.28-.26.48-.35.69,0,0,.04-.09-.1-.1-.22.09-.33.14-.55.21-.22.15-.34.24-.45.31,0-.03.06-.02-.02.06-.17.19-.26.3-.35.42-.17.21-.33.42-.69.72-.28.2-.38.31-.48.42-1.85,1.88-3.7,3.77-5.76,5.71-.28.06-.35.06-.41.07-1.96-5.66-2.92-11.47-2.72-17.46.27-8.14,1.97-15.96,5.38-23.38.26-.57.92-.95,1.39-1.42.42.45.97.83,1.24,1.36,2.91,5.69,4.32,11.85,5.48,18.06.67,3.6,1.05,7.25,1.56,11.13,0,.24-.07.4-.07.4h-.01Z"/>
    <path class="st7" d="M44.04,56.15c-.25-.93-.54-2.03-.7-3.15-.1-.69-.02-1.41.1-2.29.27-.18.43-.17.59-.17,0,1.81.02,3.62,0,5.62h.01Z"/>
    <path class="st14" d="M44.35,63.51c-.16-1.8-.32-3.76-.4-5.85.19,1.81.3,3.75.4,5.85Z"/>
    <path class="st10" d="M44.05,50.4c-.18.13-.33.13-.61.13-.75-.45-1.19-.88.12-1.17.18.1.25.19.42.33.08.23.09.41.07.71Z"/>
    <path class="st3" d="M52.92,62.59c-.08.19-.26.43-.55.7.07-.2.26-.42.55-.7Z"/>
    <path class="st3" d="M50.21,65.37c0,.13-.07.33-.24.59,0-.13.07-.33.24-.59Z"/>
    <path class="st3" d="M66.96,48.89c-.1.05-.03-.11,0-.19.03-.08.2-.15.29-.19,0,.08-.1.2-.29.37h0Z"/>
    <path class="st3" d="M48.24,67.58c0,.08-.12.19-.36.34,0-.07.12-.19.36-.34Z"/>
    <path d="M54.6,60.34c.07-.09.14-.09.3-.11.02.09-.06.2-.24.33-.09.03-.07-.14-.06-.23h0Z"/>
    <path class="st3" d="M49.79,66c.04.1-.04.21-.21.36-.03-.09.03-.22.21-.36Z"/>
    <path class="st3" d="M49.4,66.39c.04.1-.04.2-.21.35-.03-.08.03-.21.21-.35Z"/>
    <path class="st3" d="M49.02,66.78c.03.1-.05.2-.21.35-.02-.08.04-.21.21-.35Z"/>
    <path class="st3" d="M48.63,67.17c.03.09-.05.2-.21.35-.02-.08.04-.21.21-.35Z"/>
    <path class="st17" d="M32.63,67.59c-.08-.33,0-.65.14-1.08.66.24,1.24.58,1.81.91-.03.09-.05.19-.08.28-.58-.04-1.15-.08-1.87-.12h0Z"/>
    <path class="st1" d="M131.8,195.02c-.76-4.99-1.43-10.04-2.05-15.1-.19-1.55-.26-3.11-.39-4.83,2.06-.14,4.14-.26,6.18-.04,2.02.23,3.99.85,6,1.2.44.08.96-.35,1.44-.33.25,0,.49.47.73.85-2.75,4.46-5.47,8.82-8.25,13.14-1.11,1.73-2.36,3.36-3.66,5.11h0Z"/>
    <path class="st1" d="M131.69,195.37c-.13,0-.16-.09-.04-.25.05-.04.04.15.04.25Z"/>
    <path class="st3" d="M62.86,52.49c.13,0,.24-.06.41-.17-.18.29-.45.59-.82.81-.09-.15-.09-.22-.08-.28,0,0-.05,0,.06,0,.22-.11.32-.23.43-.35h0Z"/>
    <path class="st11" d="M68.14,56.55c.04.11.02.23,0,.34-.02-.11-.04-.23,0-.34Z"/>
    <path class="st3" d="M64.93,50.9c.09-.27.33-.51.68-.81.06.19,0,.43-.13.78-.19.08-.29.07-.55.03Z"/>
    <path class="st3" d="M63.52,52.38c-.02-.15.07-.35.24-.64,0,.14-.06.36-.24.64Z"/>
    <path d="M60.87,54.43c0-.06.09-.17.28-.34,0,.05-.09.17-.28.34Z"/>
    <path d="M62.29,52.91c.08,0,.07.06.03.22-.04.09-.21.12-.29.16,0-.08.1-.19.27-.38h0Z"/>
    <path class="st3" d="M63.94,51.64c-.04-.09.03-.2.2-.37.03.08-.03.21-.2.37Z"/>
    <path class="st3" d="M64.29,51.25c-.02-.09.06-.21.25-.34.02.09-.06.21-.25.34Z"/>
    <path class="st0" d="M103.2,87.13c-.48.29-1,.69-1.25.57-.78-.4-1.46-1-2.18-1.53.48-.4,1.01-1.17,1.42-1.11,1.02.15,2.46.19,2.01,2.08h0Z"/>
    <path class="st3" d="M89.65,86.3c-.05-.12.03-.2.25-.22.02.11-.06.17-.25.22Z"/>
    <path class="st3" d="M65.83,50.06c-.02-.07.05-.19.23-.38.02.07-.06.19-.23.38Z"/>
    <path class="st11" d="M94.87,193.92l-.07.12s0-.08.04-.1l.03-.02h0Z"/>
    <path d="M62.76,52.55c0,.06-.11.18-.34.32,0-.07.12-.16.34-.32Z"/>
  </g>
  <g>
    <path class="st15" d="M607.45,269.55"/>
    <path class="st5" d="M388.87,78.48c-7.08,23.85-14.47,46.22-22.17,67.09-7.71,20.87-16.13,41.11-25.25,60.73-3.3,7.06-6.61,13.07-9.9,18-3.3,4.94-6.92,9.02-10.84,12.24s-8.36,5.57-13.32,7.06c-4.94,1.49-10.72,2.23-17.32,2.23-5.51,0-10.58-.52-15.21-1.54s-8.44-2.17-11.42-3.41l6.12-28.01c3.61,1.26,6.83,2.12,9.65,2.59,2.82.47,5.81.71,8.94.71,6.28,0,11.11-1.69,14.48-5.05,3.37-3.37,6.25-8.05,8.6-14-8-15.69-16.02-33.32-24.03-52.85-8-19.54-15.54-41.46-22.6-65.78h37.19c1.57,6.12,3.42,12.76,5.56,19.88,2.12,7.14,4.38,14.36,6.73,21.66,2.35,7.3,4.77,14.41,7.2,21.3,2.45,6.9,4.77,13.18,6.98,18.83,2.04-5.65,4.17-11.93,6.39-18.83s4.38-14,6.5-21.3,4.17-14.52,6.15-21.66c1.96-7.14,3.73-13.76,5.32-19.88h36.27-.02Z"/>
    <path class="st5" d="M398.28,141.33c0-10.98,1.68-20.59,5.05-28.84,3.37-8.24,7.8-15.1,13.31-20.59,5.49-5.49,11.8-9.65,18.96-12.48,7.14-2.82,14.47-4.24,22-4.24,17.58,0,31.46,5.38,41.66,16.12,10.2,10.75,15.3,26.57,15.3,47.44,0,2.04-.08,4.28-.24,6.7-.16,2.43-.31,4.6-.47,6.47h-79.56c.78,7.22,4.16,12.95,10.12,17.18,5.96,4.24,13.97,6.36,24.01,6.36,6.43,0,12.74-.6,18.96-1.76,6.2-1.18,11.25-2.62,15.17-4.35l4.71,28.48c-1.88.94-4.39,1.88-7.53,2.82s-6.64,1.76-10.48,2.46c-3.84.71-7.97,1.3-12.37,1.76-4.39.47-8.79.71-13.18.71-11.14,0-20.84-1.65-29.08-4.94-8.24-3.3-15.07-7.8-20.48-13.53s-9.42-12.51-12-20.37c-2.59-7.85-3.88-16.32-3.88-25.42h0l.02.02h0ZM480.67,127.91c-.16-2.98-.67-5.88-1.52-8.71-.86-2.82-2.2-5.34-4-7.53s-4.08-4-6.83-5.41c-2.75-1.41-6.17-2.12-10.25-2.12s-7.3.67-10.12,1.99c-2.82,1.33-5.18,3.11-7.06,5.3-1.88,2.2-3.34,4.75-4.36,7.66s-1.76,5.85-2.23,8.82h46.37,0Z"/>
    <path class="st5" d="M540.46,47.64l35.07-5.65v36.49h42.14v29.19h-42.14v43.55c0,7.38,1.3,13.26,3.89,17.65s7.8,6.59,15.65,6.59c3.77,0,7.66-.36,11.64-1.05,4-.71,7.66-1.68,10.95-2.95l4.94,27.31c-4.24,1.73-8.94,3.22-14.12,4.47-5.18,1.26-11.53,1.88-19.07,1.88-9.57,0-17.5-1.29-23.77-3.88-6.28-2.59-11.3-6.2-15.07-10.83s-6.4-10.23-7.89-16.82-2.23-13.89-2.23-21.89V47.64h0Z"/>
    <path class="st5" d="M684.5,42.7c0,6.43-2.09,11.5-6.25,15.19s-9.05,5.52-14.72,5.52-10.56-1.84-14.72-5.52c-4.16-3.69-6.23-8.74-6.23-15.19s2.07-11.49,6.23-15.17c4.16-3.69,9.07-5.52,14.72-5.52s10.55,1.85,14.72,5.52c4.16,3.69,6.25,8.76,6.25,15.17ZM681.21,202.29h-35.07v-123.82h35.07v123.82Z"/>
  </g>
</svg>